<svg width="1330" height="888" viewBox="0 0 1330 888" fill="none" xmlns="http://www.w3.org/2000/svg">
<g clip-path="url(#clip0_218_2)">
<rect width="1330" height="888" rx="24" fill="#6772E5"/>
<rect x="125.774" y="246.625" width="179.805" height="59.75" rx="29.875" fill="#808AF2"/>
<path fill-rule="evenodd" clip-rule="evenodd" d="M177.498 267.493C177.51 267.537 177.516 267.582 177.516 267.628V274.689C177.516 274.78 177.493 274.869 177.448 274.947C177.403 275.026 177.338 275.091 177.26 275.136L171.384 278.548V285.312C171.384 285.496 171.287 285.666 171.129 285.759L158.865 292.881C158.836 292.897 158.806 292.907 158.775 292.918C158.764 292.922 158.753 292.929 158.741 292.932C158.655 292.955 158.565 292.955 158.479 292.932C158.465 292.928 158.452 292.921 158.439 292.915C158.411 292.905 158.382 292.896 158.355 292.881L146.093 285.759C146.015 285.713 145.95 285.648 145.905 285.57C145.86 285.492 145.836 285.403 145.836 285.312V264.127C145.836 264.081 145.843 264.036 145.854 263.992C145.858 263.977 145.867 263.964 145.872 263.949C145.882 263.922 145.891 263.894 145.905 263.869C145.914 263.852 145.928 263.839 145.94 263.823C145.954 263.803 145.968 263.782 145.985 263.764C146 263.749 146.019 263.738 146.035 263.725C146.054 263.71 146.07 263.693 146.092 263.681H146.092L152.223 260.12C152.301 260.074 152.389 260.051 152.479 260.051C152.568 260.051 152.656 260.074 152.734 260.12L158.865 263.681H158.866C158.887 263.693 158.904 263.71 158.923 263.724C158.939 263.737 158.958 263.749 158.972 263.763C158.99 263.782 159.003 263.803 159.018 263.823C159.029 263.839 159.044 263.852 159.053 263.869C159.067 263.895 159.076 263.922 159.086 263.949C159.091 263.964 159.1 263.977 159.104 263.993C159.116 264.037 159.122 264.082 159.122 264.127V277.359L164.231 274.391V267.627C164.231 267.582 164.237 267.536 164.249 267.493C164.253 267.478 164.262 267.464 164.267 267.45C164.277 267.422 164.286 267.395 164.3 267.37C164.309 267.353 164.323 267.339 164.334 267.324C164.35 267.303 164.362 267.282 164.38 267.264C164.395 267.249 164.413 267.238 164.43 267.226C164.449 267.21 164.466 267.193 164.486 267.181H164.487L170.619 263.62C170.696 263.575 170.784 263.551 170.874 263.551C170.964 263.551 171.052 263.575 171.129 263.62L177.26 267.181C177.282 267.194 177.299 267.21 177.318 267.225C177.334 267.238 177.352 267.249 177.367 267.264C177.385 267.282 177.398 267.303 177.413 267.324C177.424 267.339 177.438 267.353 177.447 267.37C177.462 267.395 177.47 267.422 177.481 267.45C177.486 267.464 177.495 267.478 177.498 267.493V267.493ZM176.494 274.391V268.519L174.349 269.765L171.384 271.487V277.359L176.495 274.391H176.494ZM170.363 285.014V279.138L167.447 280.818L159.121 285.611V291.543L170.363 285.014ZM146.858 265.019V285.014L158.099 291.542V285.612L152.227 282.259L152.225 282.258L152.222 282.257C152.202 282.245 152.186 282.228 152.167 282.214C152.151 282.201 152.133 282.191 152.119 282.177L152.118 282.175C152.101 282.159 152.089 282.139 152.075 282.121C152.063 282.104 152.047 282.089 152.037 282.071L152.037 282.069C152.025 282.05 152.018 282.026 152.01 282.004C152.001 281.985 151.991 281.967 151.985 281.947V281.946C151.979 281.921 151.978 281.896 151.975 281.871C151.973 281.851 151.968 281.832 151.968 281.813V281.811V267.986L149.004 266.264L146.858 265.019V265.019ZM152.479 261.161L147.371 264.127L152.478 267.094L157.586 264.127L152.478 261.161H152.479ZM155.136 279.673L158.1 277.952V265.019L155.954 266.265L152.99 267.986V280.92L155.136 279.673ZM170.874 264.661L165.766 267.628L170.874 270.594L175.981 267.627L170.874 264.661V264.661ZM170.363 271.487L167.399 269.765L165.253 268.519V274.391L168.217 276.112L170.363 277.359V271.487ZM158.609 284.72L166.102 280.405L169.847 278.249L164.743 275.285L158.866 278.698L153.51 281.808L158.609 284.72V284.72Z" fill="white"/>
<path d="M198.606 281.693H204.499V284H195.747V266.571H198.606V281.693ZM205.937 277.028C205.937 275.641 206.222 274.412 206.79 273.342C207.375 272.272 208.161 271.444 209.147 270.859C210.15 270.257 211.254 269.956 212.458 269.956C213.544 269.956 214.489 270.174 215.291 270.608C216.111 271.026 216.763 271.553 217.248 272.188V270.182H220.131V284H217.248V281.944C216.763 282.596 216.102 283.139 215.266 283.574C214.43 284.008 213.477 284.226 212.407 284.226C211.22 284.226 210.134 283.925 209.147 283.323C208.161 282.704 207.375 281.852 206.79 280.765C206.222 279.661 205.937 278.416 205.937 277.028ZM217.248 277.078C217.248 276.125 217.047 275.298 216.646 274.596C216.261 273.894 215.751 273.359 215.116 272.991C214.481 272.623 213.795 272.439 213.059 272.439C212.324 272.439 211.638 272.623 211.003 272.991C210.368 273.342 209.849 273.868 209.448 274.571C209.064 275.256 208.871 276.075 208.871 277.028C208.871 277.981 209.064 278.817 209.448 279.536C209.849 280.255 210.368 280.807 211.003 281.191C211.655 281.559 212.341 281.743 213.059 281.743C213.795 281.743 214.481 281.559 215.116 281.191C215.751 280.823 216.261 280.288 216.646 279.586C217.047 278.867 217.248 278.031 217.248 277.078ZM226.745 272.188C227.163 271.486 227.715 270.943 228.401 270.558C229.103 270.157 229.93 269.956 230.883 269.956V272.915H230.156C229.036 272.915 228.183 273.2 227.598 273.768C227.03 274.337 226.745 275.323 226.745 276.727V284H223.887V270.182H226.745V272.188ZM232.558 277.028C232.558 275.641 232.842 274.412 233.411 273.342C233.996 272.272 234.782 271.444 235.768 270.859C236.771 270.257 237.875 269.956 239.079 269.956C240.165 269.956 241.11 270.174 241.912 270.608C242.732 271.026 243.384 271.553 243.868 272.188V270.182H246.752V284H243.868V281.944C243.384 282.596 242.723 283.139 241.887 283.574C241.051 284.008 240.098 284.226 239.028 284.226C237.841 284.226 236.755 283.925 235.768 283.323C234.782 282.704 233.996 281.852 233.411 280.765C232.842 279.661 232.558 278.416 232.558 277.028ZM243.868 277.078C243.868 276.125 243.668 275.298 243.267 274.596C242.882 273.894 242.372 273.359 241.737 272.991C241.102 272.623 240.416 272.439 239.68 272.439C238.945 272.439 238.259 272.623 237.624 272.991C236.989 273.342 236.47 273.868 236.069 274.571C235.685 275.256 235.492 276.075 235.492 277.028C235.492 277.981 235.685 278.817 236.069 279.536C236.47 280.255 236.989 280.807 237.624 281.191C238.276 281.559 238.962 281.743 239.68 281.743C240.416 281.743 241.102 281.559 241.737 281.191C242.372 280.823 242.882 280.288 243.267 279.586C243.668 278.867 243.868 278.031 243.868 277.078ZM255.849 281.442L259.761 270.182H262.796L257.529 284H254.119L248.877 270.182H251.937L255.849 281.442ZM277.621 276.752C277.621 277.271 277.588 277.739 277.521 278.157H266.963C267.047 279.26 267.456 280.146 268.192 280.815C268.928 281.484 269.83 281.818 270.9 281.818C272.438 281.818 273.525 281.175 274.16 279.887H277.245C276.827 281.158 276.066 282.203 274.963 283.022C273.876 283.824 272.522 284.226 270.9 284.226C269.58 284.226 268.393 283.933 267.339 283.348C266.303 282.746 265.483 281.91 264.882 280.84C264.296 279.753 264.004 278.5 264.004 277.078C264.004 275.657 264.288 274.412 264.857 273.342C265.442 272.255 266.253 271.419 267.289 270.834C268.342 270.249 269.546 269.956 270.9 269.956C272.204 269.956 273.366 270.24 274.386 270.809C275.406 271.377 276.2 272.18 276.769 273.216C277.337 274.236 277.621 275.415 277.621 276.752ZM274.637 275.85C274.62 274.796 274.244 273.952 273.508 273.317C272.773 272.681 271.862 272.364 270.775 272.364C269.789 272.364 268.944 272.681 268.242 273.317C267.54 273.935 267.122 274.78 266.988 275.85H274.637ZM283.294 265.442V284H280.435V265.442H283.294Z" fill="white"/>
<path d="M137.883 380.515H149.525V387.375H128.996V350.89H137.883V380.515ZM151.997 372.823C151.997 369.843 152.552 367.227 153.66 364.975C154.804 362.723 156.346 360.99 158.286 359.778C160.226 358.565 162.392 357.958 164.783 357.958C166.827 357.958 168.611 358.374 170.136 359.206C171.695 360.037 172.89 361.129 173.722 362.48V358.374H182.609V387.375H173.722V383.269C172.856 384.62 171.643 385.712 170.084 386.543C168.559 387.375 166.775 387.791 164.731 387.791C162.374 387.791 160.226 387.184 158.286 385.972C156.346 384.724 154.804 382.975 153.66 380.723C152.552 378.436 151.997 375.802 151.997 372.823ZM173.722 372.875C173.722 370.657 173.098 368.907 171.851 367.625C170.638 366.343 169.148 365.702 167.381 365.702C165.614 365.702 164.107 366.343 162.86 367.625C161.647 368.873 161.04 370.605 161.04 372.823C161.04 375.04 161.647 376.807 162.86 378.124C164.107 379.406 165.614 380.047 167.381 380.047C169.148 380.047 170.638 379.406 171.851 378.124C173.098 376.842 173.722 375.092 173.722 372.875ZM197.926 363.208C198.966 361.614 200.265 360.367 201.824 359.466C203.383 358.53 205.116 358.062 207.021 358.062V367.469H204.579C202.361 367.469 200.698 367.955 199.589 368.925C198.48 369.86 197.926 371.523 197.926 373.914V387.375H189.039V358.374H197.926V363.208ZM209.502 372.823C209.502 369.843 210.057 367.227 211.165 364.975C212.309 362.723 213.851 360.99 215.791 359.778C217.731 358.565 219.897 357.958 222.287 357.958C224.332 357.958 226.116 358.374 227.641 359.206C229.2 360.037 230.395 361.129 231.227 362.48V358.374H240.114V387.375H231.227V383.269C230.361 384.62 229.148 385.712 227.589 386.543C226.064 387.375 224.28 387.791 222.235 387.791C219.879 387.791 217.731 387.184 215.791 385.972C213.851 384.724 212.309 382.975 211.165 380.723C210.057 378.436 209.502 375.802 209.502 372.823ZM231.227 372.875C231.227 370.657 230.603 368.907 229.356 367.625C228.143 366.343 226.653 365.702 224.886 365.702C223.119 365.702 221.612 366.343 220.364 367.625C219.152 368.873 218.545 370.605 218.545 372.823C218.545 375.04 219.152 376.807 220.364 378.124C221.612 379.406 223.119 380.047 224.886 380.047C226.653 380.047 228.143 379.406 229.356 378.124C230.603 376.842 231.227 375.092 231.227 372.875ZM259.589 379.059L265.877 358.374H275.336L265.046 387.375H254.08L243.789 358.374H253.3L259.589 379.059ZM306.415 372.407C306.415 373.238 306.363 374.105 306.259 375.006H286.146C286.284 376.807 286.856 378.193 287.861 379.163C288.9 380.099 290.165 380.567 291.655 380.567C293.872 380.567 295.414 379.631 296.28 377.76H305.739C305.254 379.666 304.371 381.381 303.089 382.905C301.841 384.43 300.265 385.625 298.359 386.491C296.453 387.358 294.323 387.791 291.967 387.791C289.125 387.791 286.596 387.184 284.378 385.972C282.161 384.759 280.429 383.027 279.181 380.774C277.934 378.522 277.31 375.889 277.31 372.875C277.31 369.86 277.917 367.227 279.129 364.975C280.377 362.723 282.109 360.99 284.327 359.778C286.544 358.565 289.091 357.958 291.967 357.958C294.773 357.958 297.268 358.548 299.451 359.726C301.633 360.904 303.331 362.584 304.544 364.767C305.791 366.95 306.415 369.496 306.415 372.407ZM297.32 370.068C297.32 368.544 296.8 367.331 295.761 366.43C294.721 365.529 293.422 365.079 291.863 365.079C290.373 365.079 289.108 365.512 288.069 366.378C287.064 367.244 286.44 368.474 286.198 370.068H297.32ZM319.991 348.915V387.375H311.103V348.915H319.991ZM369.044 350.89V387.375H360.157V372.355H346.332V387.375H337.445V350.89H346.332V365.183H360.157V350.89H369.044ZM388.661 387.791C385.82 387.791 383.256 387.184 380.969 385.972C378.717 384.759 376.933 383.027 375.616 380.774C374.334 378.522 373.693 375.889 373.693 372.875C373.693 369.895 374.351 367.279 375.668 365.027C376.985 362.74 378.786 360.99 381.073 359.778C383.36 358.565 385.924 357.958 388.765 357.958C391.606 357.958 394.17 358.565 396.457 359.778C398.744 360.99 400.546 362.74 401.862 365.027C403.179 367.279 403.837 369.895 403.837 372.875C403.837 375.854 403.162 378.488 401.81 380.774C400.494 383.027 398.675 384.759 396.353 385.972C394.066 387.184 391.502 387.791 388.661 387.791ZM388.661 380.099C390.359 380.099 391.797 379.475 392.975 378.228C394.188 376.98 394.794 375.196 394.794 372.875C394.794 370.553 394.205 368.769 393.027 367.521C391.884 366.274 390.463 365.65 388.765 365.65C387.033 365.65 385.595 366.274 384.451 367.521C383.308 368.734 382.736 370.519 382.736 372.875C382.736 375.196 383.291 376.98 384.399 378.228C385.543 379.475 386.963 380.099 388.661 380.099ZM417.439 363.208C418.479 361.614 419.778 360.367 421.337 359.466C422.897 358.53 424.629 358.062 426.535 358.062V367.469H424.092C421.874 367.469 420.211 367.955 419.103 368.925C417.994 369.86 417.439 371.523 417.439 373.914V387.375H408.552V358.374H417.439V363.208ZM435.252 355.36C433.693 355.36 432.411 354.909 431.406 354.009C430.436 353.073 429.951 351.93 429.951 350.578C429.951 349.192 430.436 348.049 431.406 347.148C432.411 346.213 433.693 345.745 435.252 345.745C436.777 345.745 438.024 346.213 438.994 347.148C439.999 348.049 440.501 349.192 440.501 350.578C440.501 351.93 439.999 353.073 438.994 354.009C438.024 354.909 436.777 355.36 435.252 355.36ZM439.67 358.374V387.375H430.783V358.374H439.67ZM454.426 380.047H467.003V387.375H444.499V380.307L456.557 365.702H444.603V358.374H466.744V365.443L454.426 380.047ZM485.095 387.791C482.254 387.791 479.69 387.184 477.403 385.972C475.151 384.759 473.366 383.027 472.05 380.774C470.768 378.522 470.127 375.889 470.127 372.875C470.127 369.895 470.785 367.279 472.102 365.027C473.418 362.74 475.22 360.99 477.507 359.778C479.794 358.565 482.358 357.958 485.199 357.958C488.04 357.958 490.604 358.565 492.891 359.778C495.178 360.99 496.979 362.74 498.296 365.027C499.613 367.279 500.271 369.895 500.271 372.875C500.271 375.854 499.595 378.488 498.244 380.774C496.927 383.027 495.108 384.759 492.787 385.972C490.5 387.184 487.936 387.791 485.095 387.791ZM485.095 380.099C486.793 380.099 488.231 379.475 489.409 378.228C490.621 376.98 491.228 375.196 491.228 372.875C491.228 370.553 490.639 368.769 489.461 367.521C488.317 366.274 486.897 365.65 485.199 365.65C483.466 365.65 482.028 366.274 480.885 367.521C479.742 368.734 479.17 370.519 479.17 372.875C479.17 375.196 479.724 376.98 480.833 378.228C481.976 379.475 483.397 380.099 485.095 380.099ZM522.656 358.062C526.052 358.062 528.755 359.171 530.764 361.389C532.808 363.572 533.831 366.586 533.831 370.432V387.375H524.995V371.627C524.995 369.687 524.493 368.18 523.488 367.106C522.483 366.032 521.132 365.495 519.434 365.495C517.736 365.495 516.385 366.032 515.38 367.106C514.375 368.18 513.873 369.687 513.873 371.627V387.375H504.986V358.374H513.873V362.22C514.774 360.938 515.987 359.933 517.511 359.206C519.036 358.444 520.751 358.062 522.656 358.062ZM569.626 387.375L562.038 373.602H559.907V387.375H551.02V350.89H565.936C568.812 350.89 571.255 351.393 573.264 352.397C575.309 353.402 576.833 354.788 577.838 356.555C578.843 358.288 579.345 360.228 579.345 362.376C579.345 364.802 578.652 366.967 577.266 368.873C575.915 370.778 573.905 372.13 571.237 372.927L579.657 387.375H569.626ZM559.907 367.314H565.417C567.045 367.314 568.258 366.915 569.055 366.118C569.886 365.321 570.302 364.195 570.302 362.74C570.302 361.354 569.886 360.263 569.055 359.466C568.258 358.669 567.045 358.27 565.417 358.27H559.907V367.314ZM612.262 372.407C612.262 373.238 612.21 374.105 612.106 375.006H591.992C592.131 376.807 592.703 378.193 593.708 379.163C594.747 380.099 596.012 380.567 597.502 380.567C599.719 380.567 601.261 379.631 602.127 377.76H611.586C611.101 379.666 610.218 381.381 608.936 382.905C607.688 384.43 606.112 385.625 604.206 386.491C602.3 387.358 600.169 387.791 597.813 387.791C594.972 387.791 592.443 387.184 590.225 385.972C588.008 384.759 586.275 383.027 585.028 380.774C583.781 378.522 583.157 375.889 583.157 372.875C583.157 369.86 583.763 367.227 584.976 364.975C586.223 362.723 587.956 360.99 590.173 359.778C592.391 358.565 594.938 357.958 597.813 357.958C600.62 357.958 603.115 358.548 605.297 359.726C607.48 360.904 609.178 362.584 610.391 364.767C611.638 366.95 612.262 369.496 612.262 372.407ZM603.167 370.068C603.167 368.544 602.647 367.331 601.607 366.43C600.568 365.529 599.269 365.079 597.709 365.079C596.22 365.079 594.955 365.512 593.915 366.378C592.911 367.244 592.287 368.474 592.044 370.068H603.167ZM628.748 387.791C626.219 387.791 623.967 387.358 621.992 386.491C620.017 385.625 618.457 384.447 617.314 382.957C616.171 381.433 615.53 379.735 615.391 377.864H624.174C624.278 378.869 624.746 379.683 625.578 380.307C626.409 380.93 627.431 381.242 628.644 381.242C629.753 381.242 630.602 381.034 631.191 380.619C631.814 380.168 632.126 379.596 632.126 378.903C632.126 378.072 631.693 377.466 630.827 377.084C629.961 376.669 628.557 376.218 626.617 375.733C624.538 375.248 622.806 374.746 621.42 374.226C620.034 373.672 618.839 372.823 617.834 371.679C616.829 370.501 616.327 368.925 616.327 366.95C616.327 365.287 616.777 363.779 617.678 362.428C618.613 361.042 619.965 359.951 621.732 359.154C623.533 358.357 625.664 357.958 628.124 357.958C631.762 357.958 634.621 358.859 636.7 360.661C638.813 362.463 640.026 364.854 640.338 367.833H632.126C631.988 366.828 631.537 366.032 630.775 365.443C630.047 364.854 629.077 364.559 627.865 364.559C626.825 364.559 626.028 364.767 625.474 365.183C624.919 365.564 624.642 366.101 624.642 366.794C624.642 367.625 625.075 368.249 625.942 368.665C626.842 369.081 628.228 369.496 630.099 369.912C632.248 370.467 633.997 371.021 635.349 371.575C636.7 372.095 637.878 372.961 638.883 374.174C639.922 375.352 640.459 376.946 640.494 378.955C640.494 380.653 640.009 382.178 639.039 383.529C638.103 384.846 636.735 385.885 634.933 386.647C633.166 387.41 631.104 387.791 628.748 387.791ZM662.095 379.839V387.375H657.573C654.351 387.375 651.839 386.595 650.037 385.036C648.235 383.442 647.334 380.861 647.334 377.292V365.754H643.8V358.374H647.334V351.306H656.222V358.374H662.043V365.754H656.222V377.396C656.222 378.262 656.43 378.886 656.845 379.267C657.261 379.648 657.954 379.839 658.924 379.839H662.095ZM665.278 372.823C665.278 369.843 665.832 367.227 666.941 364.975C668.084 362.723 669.626 360.99 671.567 359.778C673.507 358.565 675.672 357.958 678.063 357.958C680.107 357.958 681.892 358.374 683.416 359.206C684.976 360.037 686.171 361.129 687.002 362.48V358.374H695.89V387.375H687.002V383.269C686.136 384.62 684.924 385.712 683.364 386.543C681.84 387.375 680.055 387.791 678.011 387.791C675.655 387.791 673.507 387.184 671.567 385.972C669.626 384.724 668.084 382.975 666.941 380.723C665.832 378.436 665.278 375.802 665.278 372.823ZM687.002 372.875C687.002 370.657 686.379 368.907 685.131 367.625C683.919 366.343 682.429 365.702 680.662 365.702C678.895 365.702 677.388 366.343 676.14 367.625C674.928 368.873 674.321 370.605 674.321 372.823C674.321 375.04 674.928 376.807 676.14 378.124C677.388 379.406 678.895 380.047 680.662 380.047C682.429 380.047 683.919 379.406 685.131 378.124C686.379 376.842 687.002 375.092 687.002 372.875ZM711.207 363.208C712.246 361.614 713.546 360.367 715.105 359.466C716.664 358.53 718.396 358.062 720.302 358.062V367.469H717.859C715.642 367.469 713.979 367.955 712.87 368.925C711.761 369.86 711.207 371.523 711.207 373.914V387.375H702.319V358.374H711.207V363.208ZM740.713 379.839V387.375H736.192C732.969 387.375 730.457 386.595 728.656 385.036C726.854 383.442 725.953 380.861 725.953 377.292V365.754H722.419V358.374H725.953V351.306H734.84V358.374H740.661V365.754H734.84V377.396C734.84 378.262 735.048 378.886 735.464 379.267C735.88 379.648 736.573 379.839 737.543 379.839H740.713ZM773.001 372.407C773.001 373.238 772.949 374.105 772.845 375.006H752.732C752.871 376.807 753.442 378.193 754.447 379.163C755.487 380.099 756.751 380.567 758.241 380.567C760.459 380.567 762.001 379.631 762.867 377.76H772.326C771.841 379.666 770.957 381.381 769.675 382.905C768.428 384.43 766.851 385.625 764.946 386.491C763.04 387.358 760.909 387.791 758.553 387.791C755.712 387.791 753.182 387.184 750.965 385.972C748.747 384.759 747.015 383.027 745.768 380.774C744.52 378.522 743.897 375.889 743.897 372.875C743.897 369.86 744.503 367.227 745.716 364.975C746.963 362.723 748.696 360.99 750.913 359.778C753.131 358.565 755.677 357.958 758.553 357.958C761.36 357.958 763.854 358.548 766.037 359.726C768.22 360.904 769.918 362.584 771.13 364.767C772.378 366.95 773.001 369.496 773.001 372.407ZM763.906 370.068C763.906 368.544 763.386 367.331 762.347 366.43C761.308 365.529 760.008 365.079 758.449 365.079C756.959 365.079 755.694 365.512 754.655 366.378C753.65 367.244 753.027 368.474 752.784 370.068H763.906ZM786.577 363.208C787.617 361.614 788.916 360.367 790.475 359.466C792.034 358.53 793.767 358.062 795.672 358.062V367.469H793.23C791.012 367.469 789.349 367.955 788.24 368.925C787.132 369.86 786.577 371.523 786.577 373.914V387.375H777.69V358.374H786.577V363.208Z" fill="white"/>
<path d="M163.187 482.186C163.55 482.572 163.745 483.086 163.729 483.615C163.713 484.145 163.487 484.646 163.102 485.009L141.979 504.917C141.549 505.322 140.976 505.543 140.385 505.532C139.794 505.521 139.23 505.279 138.815 504.858L131.676 497.613C131.487 497.428 131.337 497.206 131.235 496.962C131.132 496.717 131.079 496.455 131.079 496.19C131.079 495.925 131.131 495.663 131.233 495.418C131.335 495.174 131.485 494.952 131.674 494.766C131.863 494.58 132.086 494.433 132.332 494.334C132.578 494.236 132.841 494.187 133.106 494.191C133.371 494.195 133.633 494.252 133.876 494.358C134.119 494.464 134.338 494.617 134.521 494.809L140.472 500.847L160.363 482.101C160.749 481.737 161.263 481.543 161.793 481.559C162.322 481.575 162.824 481.8 163.187 482.186Z" fill="white"/>
<path d="M209.095 499.214H199.3L197.495 504.209H194.402L202.522 481.878H205.905L213.993 504.209H210.9L209.095 499.214ZM208.258 496.83L204.197 485.487L200.137 496.83H208.258ZM233.193 486.551V504.209H230.26V501.599C229.702 502.501 228.918 503.21 227.908 503.726C226.92 504.22 225.824 504.467 224.621 504.467C223.246 504.467 222.011 504.188 220.916 503.629C219.82 503.049 218.95 502.19 218.306 501.051C217.683 499.913 217.371 498.527 217.371 496.894V486.551H220.271V496.508C220.271 498.248 220.712 499.59 221.592 500.536C222.473 501.459 223.676 501.921 225.201 501.921C226.769 501.921 228.005 501.438 228.907 500.471C229.809 499.504 230.26 498.097 230.26 496.25V486.551H233.193ZM241.72 488.967V499.376C241.72 500.235 241.903 500.847 242.268 501.212C242.633 501.556 243.267 501.728 244.169 501.728H246.328V504.209H243.686C242.053 504.209 240.829 503.833 240.013 503.081C239.196 502.329 238.788 501.094 238.788 499.376V488.967H236.5V486.551H238.788V482.104H241.72V486.551H246.328V488.967H241.72ZM257.582 504.499C255.928 504.499 254.425 504.123 253.071 503.371C251.739 502.619 250.687 501.556 249.913 500.181C249.161 498.785 248.786 497.174 248.786 495.348C248.786 493.543 249.172 491.953 249.946 490.579C250.74 489.182 251.815 488.119 253.168 487.389C254.521 486.637 256.036 486.261 257.711 486.261C259.387 486.261 260.901 486.637 262.255 487.389C263.608 488.119 264.672 489.172 265.445 490.546C266.24 491.921 266.637 493.522 266.637 495.348C266.637 497.174 266.229 498.785 265.413 500.181C264.618 501.556 263.533 502.619 262.158 503.371C260.783 504.123 259.258 504.499 257.582 504.499ZM257.582 501.921C258.635 501.921 259.623 501.674 260.547 501.18C261.471 500.686 262.212 499.945 262.77 498.957C263.35 497.968 263.64 496.765 263.64 495.348C263.64 493.93 263.361 492.727 262.803 491.739C262.244 490.75 261.514 490.02 260.611 489.547C259.709 489.053 258.732 488.806 257.679 488.806C256.605 488.806 255.617 489.053 254.715 489.547C253.834 490.02 253.125 490.75 252.588 491.739C252.051 492.727 251.782 493.93 251.782 495.348C251.782 496.787 252.04 498.001 252.556 498.989C253.093 499.977 253.802 500.718 254.682 501.212C255.563 501.685 256.53 501.921 257.582 501.921ZM291.728 486.229C293.102 486.229 294.327 486.519 295.401 487.099C296.475 487.657 297.324 488.506 297.947 489.644C298.57 490.783 298.881 492.168 298.881 493.801V504.209H295.981V494.22C295.981 492.458 295.541 491.116 294.66 490.192C293.801 489.247 292.63 488.774 291.148 488.774C289.622 488.774 288.409 489.268 287.506 490.256C286.604 491.223 286.153 492.63 286.153 494.478V504.209H283.253V494.22C283.253 492.458 282.813 491.116 281.932 490.192C281.072 489.247 279.902 488.774 278.419 488.774C276.894 488.774 275.68 489.268 274.778 490.256C273.876 491.223 273.425 492.63 273.425 494.478V504.209H270.493V486.551H273.425V489.096C274.005 488.173 274.778 487.464 275.745 486.97C276.733 486.476 277.818 486.229 278.999 486.229C280.482 486.229 281.792 486.561 282.931 487.227C284.069 487.893 284.918 488.871 285.476 490.16C285.97 488.914 286.787 487.947 287.925 487.26C289.064 486.572 290.331 486.229 291.728 486.229ZM302.596 495.315C302.596 493.511 302.961 491.932 303.691 490.579C304.421 489.204 305.42 488.14 306.688 487.389C307.977 486.637 309.405 486.261 310.974 486.261C312.52 486.261 313.863 486.594 315.001 487.26C316.14 487.926 316.988 488.763 317.547 489.773V486.551H320.512V504.209H317.547V500.922C316.967 501.953 316.097 502.813 314.937 503.5C313.798 504.166 312.467 504.499 310.941 504.499C309.373 504.499 307.955 504.112 306.688 503.339C305.42 502.566 304.421 501.481 303.691 500.084C302.961 498.688 302.596 497.098 302.596 495.315ZM317.547 495.348C317.547 494.016 317.278 492.856 316.741 491.868C316.204 490.879 315.474 490.128 314.55 489.612C313.648 489.075 312.649 488.806 311.554 488.806C310.458 488.806 309.459 489.064 308.557 489.58C307.655 490.095 306.935 490.847 306.398 491.835C305.861 492.824 305.592 493.984 305.592 495.315C305.592 496.669 305.861 497.85 306.398 498.86C306.935 499.848 307.655 500.611 308.557 501.148C309.459 501.663 310.458 501.921 311.554 501.921C312.649 501.921 313.648 501.663 314.55 501.148C315.474 500.611 316.204 499.848 316.741 498.86C317.278 497.85 317.547 496.68 317.547 495.348ZM329.044 488.967V499.376C329.044 500.235 329.226 500.847 329.591 501.212C329.957 501.556 330.59 501.728 331.493 501.728H333.651V504.209H331.009C329.377 504.209 328.152 503.833 327.336 503.081C326.519 502.329 326.111 501.094 326.111 499.376V488.967H323.823V486.551H326.111V482.104H329.044V486.551H333.651V488.967H329.044ZM338.719 483.683C338.16 483.683 337.688 483.49 337.301 483.103C336.914 482.716 336.721 482.244 336.721 481.685C336.721 481.127 336.914 480.654 337.301 480.267C337.688 479.881 338.16 479.687 338.719 479.687C339.256 479.687 339.707 479.881 340.072 480.267C340.459 480.654 340.652 481.127 340.652 481.685C340.652 482.244 340.459 482.716 340.072 483.103C339.707 483.49 339.256 483.683 338.719 483.683ZM340.137 486.551V504.209H337.204V486.551H340.137ZM344.039 495.348C344.039 493.522 344.404 491.932 345.134 490.579C345.865 489.204 346.874 488.14 348.163 487.389C349.474 486.637 350.967 486.261 352.642 486.261C354.812 486.261 356.595 486.787 357.991 487.84C359.409 488.892 360.343 490.353 360.795 492.222H357.637C357.336 491.148 356.745 490.299 355.864 489.676C355.005 489.053 353.931 488.742 352.642 488.742C350.967 488.742 349.613 489.322 348.582 490.482C347.551 491.621 347.035 493.242 347.035 495.348C347.035 497.474 347.551 499.118 348.582 500.278C349.613 501.438 350.967 502.018 352.642 502.018C353.931 502.018 355.005 501.717 355.864 501.116C356.724 500.514 357.315 499.655 357.637 498.538H360.795C360.322 500.342 359.377 501.792 357.959 502.888C356.541 503.962 354.769 504.499 352.642 504.499C350.967 504.499 349.474 504.123 348.163 503.371C346.874 502.619 345.865 501.556 345.134 500.181C344.404 498.806 344.039 497.195 344.039 495.348ZM363.612 495.315C363.612 493.511 363.977 491.932 364.707 490.579C365.438 489.204 366.437 488.14 367.704 487.389C368.993 486.637 370.421 486.261 371.99 486.261C373.536 486.261 374.879 486.594 376.017 487.26C377.156 487.926 378.005 488.763 378.563 489.773V486.551H381.528V504.209H378.563V500.922C377.983 501.953 377.113 502.813 375.953 503.5C374.814 504.166 373.483 504.499 371.957 504.499C370.389 504.499 368.971 504.112 367.704 503.339C366.437 502.566 365.438 501.481 364.707 500.084C363.977 498.688 363.612 497.098 363.612 495.315ZM378.563 495.348C378.563 494.016 378.295 492.856 377.758 491.868C377.22 490.879 376.49 490.128 375.566 489.612C374.664 489.075 373.665 488.806 372.57 488.806C371.474 488.806 370.475 489.064 369.573 489.58C368.671 490.095 367.951 490.847 367.414 491.835C366.877 492.824 366.608 493.984 366.608 495.315C366.608 496.669 366.877 497.85 367.414 498.86C367.951 499.848 368.671 500.611 369.573 501.148C370.475 501.663 371.474 501.921 372.57 501.921C373.665 501.921 374.664 501.663 375.566 501.148C376.49 500.611 377.22 499.848 377.758 498.86C378.295 497.85 378.563 496.68 378.563 495.348ZM389.415 480.364V504.209H386.483V480.364H389.415ZM397.345 480.364V504.209H394.413V480.364H397.345ZM417.552 486.551L406.918 512.523H403.889L407.37 504.016L400.248 486.551H403.503L409.045 500.858L414.523 486.551H417.552ZM432.023 489.419C432.538 488.409 433.269 487.625 434.214 487.066C435.181 486.508 436.351 486.229 437.726 486.229V489.257H436.953C433.666 489.257 432.023 491.04 432.023 494.607V504.209H429.09V486.551H432.023V489.419ZM457.223 494.703C457.223 495.262 457.19 495.852 457.126 496.475H443.012C443.12 498.215 443.71 499.58 444.785 500.568C445.88 501.534 447.201 502.018 448.748 502.018C450.015 502.018 451.068 501.728 451.906 501.148C452.765 500.546 453.367 499.751 453.71 498.763H456.868C456.396 500.46 455.45 501.846 454.033 502.92C452.615 503.973 450.853 504.499 448.748 504.499C447.072 504.499 445.569 504.123 444.237 503.371C442.926 502.619 441.895 501.556 441.143 500.181C440.391 498.785 440.015 497.174 440.015 495.348C440.015 493.522 440.381 491.921 441.111 490.546C441.841 489.172 442.862 488.119 444.172 487.389C445.504 486.637 447.029 486.261 448.748 486.261C450.424 486.261 451.906 486.626 453.195 487.356C454.484 488.087 455.472 489.096 456.159 490.385C456.868 491.653 457.223 493.092 457.223 494.703ZM454.194 494.091C454.194 492.974 453.947 492.018 453.452 491.223C452.958 490.407 452.282 489.795 451.422 489.386C450.585 488.957 449.65 488.742 448.619 488.742C447.137 488.742 445.869 489.215 444.817 490.16C443.786 491.105 443.195 492.415 443.044 494.091H454.194ZM467.344 504.499C465.991 504.499 464.777 504.273 463.703 503.822C462.629 503.35 461.781 502.705 461.158 501.889C460.535 501.051 460.191 500.095 460.126 499.021H463.155C463.241 499.902 463.65 500.621 464.38 501.18C465.132 501.739 466.109 502.018 467.312 502.018C468.429 502.018 469.31 501.771 469.954 501.277C470.599 500.783 470.921 500.16 470.921 499.408C470.921 498.634 470.577 498.065 469.89 497.7C469.203 497.313 468.139 496.937 466.7 496.572C465.39 496.228 464.315 495.885 463.478 495.541C462.661 495.176 461.952 494.649 461.351 493.962C460.771 493.253 460.481 492.329 460.481 491.191C460.481 490.289 460.749 489.462 461.286 488.71C461.824 487.958 462.586 487.367 463.574 486.937C464.562 486.486 465.69 486.261 466.958 486.261C468.913 486.261 470.492 486.755 471.695 487.743C472.898 488.731 473.542 490.085 473.628 491.803H470.696C470.631 490.879 470.255 490.138 469.568 489.58C468.902 489.021 468 488.742 466.861 488.742C465.808 488.742 464.971 488.967 464.348 489.419C463.725 489.87 463.413 490.46 463.413 491.191C463.413 491.771 463.596 492.254 463.961 492.641C464.348 493.006 464.82 493.307 465.379 493.543C465.959 493.758 466.754 494.005 467.763 494.284C469.031 494.628 470.062 494.972 470.857 495.315C471.652 495.638 472.328 496.132 472.887 496.798C473.467 497.464 473.768 498.334 473.789 499.408C473.789 500.374 473.52 501.244 472.983 502.018C472.446 502.791 471.684 503.403 470.696 503.855C469.729 504.284 468.612 504.499 467.344 504.499ZM481.505 488.967V499.376C481.505 500.235 481.688 500.847 482.053 501.212C482.418 501.556 483.052 501.728 483.954 501.728H486.113V504.209H483.471C481.838 504.209 480.614 503.833 479.797 503.081C478.981 502.329 478.573 501.094 478.573 499.376V488.967H476.285V486.551H478.573V482.104H481.505V486.551H486.113V488.967H481.505ZM488.57 495.315C488.57 493.511 488.936 491.932 489.666 490.579C490.396 489.204 491.395 488.14 492.663 487.389C493.952 486.637 495.38 486.261 496.948 486.261C498.495 486.261 499.838 486.594 500.976 487.26C502.115 487.926 502.963 488.763 503.522 489.773V486.551H506.486V504.209H503.522V500.922C502.942 501.953 502.072 502.813 500.912 503.5C499.773 504.166 498.441 504.499 496.916 504.499C495.348 504.499 493.93 504.112 492.663 503.339C491.395 502.566 490.396 501.481 489.666 500.084C488.936 498.688 488.57 497.098 488.57 495.315ZM503.522 495.348C503.522 494.016 503.253 492.856 502.716 491.868C502.179 490.879 501.449 490.128 500.525 489.612C499.623 489.075 498.624 488.806 497.528 488.806C496.433 488.806 495.434 489.064 494.532 489.58C493.629 490.095 492.91 490.847 492.373 491.835C491.836 492.824 491.567 493.984 491.567 495.315C491.567 496.669 491.836 497.85 492.373 498.86C492.91 499.848 493.629 500.611 494.532 501.148C495.434 501.663 496.433 501.921 497.528 501.921C498.624 501.921 499.623 501.663 500.525 501.148C501.449 500.611 502.179 499.848 502.716 498.86C503.253 497.85 503.522 496.68 503.522 495.348ZM514.374 489.419C514.89 488.409 515.62 487.625 516.565 487.066C517.532 486.508 518.703 486.229 520.077 486.229V489.257H519.304C516.017 489.257 514.374 491.04 514.374 494.607V504.209H511.442V486.551H514.374V489.419ZM527.039 488.967V499.376C527.039 500.235 527.222 500.847 527.587 501.212C527.952 501.556 528.586 501.728 529.488 501.728H531.647V504.209H529.005C527.372 504.209 526.148 503.833 525.331 503.081C524.515 502.329 524.107 501.094 524.107 499.376V488.967H521.819V486.551H524.107V482.104H527.039V486.551H531.647V488.967H527.039ZM561.094 481.75V504.209H558.162V494.027H546.723V504.209H543.791V481.75H546.723V491.61H558.162V481.75H561.094ZM573.803 504.499C572.148 504.499 570.645 504.123 569.291 503.371C567.959 502.619 566.907 501.556 566.133 500.181C565.382 498.785 565.006 497.174 565.006 495.348C565.006 493.543 565.392 491.953 566.166 490.579C566.961 489.182 568.035 488.119 569.388 487.389C570.741 486.637 572.256 486.261 573.931 486.261C575.607 486.261 577.122 486.637 578.475 487.389C579.828 488.119 580.892 489.172 581.665 490.546C582.46 491.921 582.857 493.522 582.857 495.348C582.857 497.174 582.449 498.785 581.633 500.181C580.838 501.556 579.753 502.619 578.378 503.371C577.003 504.123 575.478 504.499 573.803 504.499ZM573.803 501.921C574.855 501.921 575.843 501.674 576.767 501.18C577.691 500.686 578.432 499.945 578.99 498.957C579.57 497.968 579.86 496.765 579.86 495.348C579.86 493.93 579.581 492.727 579.023 491.739C578.464 490.75 577.734 490.02 576.832 489.547C575.929 489.053 574.952 488.806 573.899 488.806C572.825 488.806 571.837 489.053 570.935 489.547C570.054 490.02 569.345 490.75 568.808 491.739C568.271 492.727 568.002 493.93 568.002 495.348C568.002 496.787 568.26 498.001 568.776 498.989C569.313 499.977 570.022 500.718 570.902 501.212C571.783 501.685 572.75 501.921 573.803 501.921ZM589.645 489.419C590.161 488.409 590.891 487.625 591.836 487.066C592.803 486.508 593.974 486.229 595.348 486.229V489.257H594.575C591.288 489.257 589.645 491.04 589.645 494.607V504.209H586.713V486.551H589.645V489.419ZM600.248 483.683C599.689 483.683 599.217 483.49 598.83 483.103C598.443 482.716 598.25 482.244 598.25 481.685C598.25 481.127 598.443 480.654 598.83 480.267C599.217 479.881 599.689 479.687 600.248 479.687C600.785 479.687 601.236 479.881 601.601 480.267C601.988 480.654 602.181 481.127 602.181 481.685C602.181 482.244 601.988 482.716 601.601 483.103C601.236 483.49 600.785 483.683 600.248 483.683ZM601.666 486.551V504.209H598.733V486.551H601.666ZM608.854 501.792H617.522V504.209H605.503V501.792L614.075 488.935H605.568V486.551H617.458V488.935L608.854 501.792ZM629.029 504.499C627.374 504.499 625.871 504.123 624.517 503.371C623.185 502.619 622.133 501.556 621.359 500.181C620.608 498.785 620.232 497.174 620.232 495.348C620.232 493.543 620.618 491.953 621.392 490.579C622.187 489.182 623.261 488.119 624.614 487.389C625.967 486.637 627.482 486.261 629.157 486.261C630.833 486.261 632.348 486.637 633.701 487.389C635.054 488.119 636.118 489.172 636.891 490.546C637.686 491.921 638.083 493.522 638.083 495.348C638.083 497.174 637.675 498.785 636.859 500.181C636.064 501.556 634.979 502.619 633.604 503.371C632.229 504.123 630.704 504.499 629.029 504.499ZM629.029 501.921C630.081 501.921 631.069 501.674 631.993 501.18C632.917 500.686 633.658 499.945 634.216 498.957C634.797 497.968 635.087 496.765 635.087 495.348C635.087 493.93 634.807 492.727 634.249 491.739C633.69 490.75 632.96 490.02 632.058 489.547C631.155 489.053 630.178 488.806 629.125 488.806C628.051 488.806 627.063 489.053 626.161 489.547C625.28 490.02 624.571 490.75 624.034 491.739C623.497 492.727 623.228 493.93 623.228 495.348C623.228 496.787 623.486 498.001 624.002 498.989C624.539 499.977 625.248 500.718 626.129 501.212C627.009 501.685 627.976 501.921 629.029 501.921ZM650.542 486.229C652.69 486.229 654.43 486.884 655.762 488.194C657.094 489.483 657.76 491.352 657.76 493.801V504.209H654.86V494.22C654.86 492.458 654.42 491.116 653.539 490.192C652.658 489.247 651.455 488.774 649.93 488.774C648.383 488.774 647.148 489.257 646.224 490.224C645.322 491.191 644.871 492.598 644.871 494.445V504.209H641.939V486.551H644.871V489.064C645.451 488.162 646.235 487.464 647.223 486.97C648.233 486.476 649.339 486.229 650.542 486.229Z" fill="white"/>
<path d="M163.187 544.803C163.55 545.189 163.745 545.703 163.729 546.232C163.713 546.762 163.487 547.263 163.102 547.626L141.979 567.534C141.549 567.94 140.976 568.16 140.385 568.15C139.794 568.139 139.23 567.897 138.815 567.475L131.676 560.231C131.487 560.045 131.337 559.823 131.235 559.579C131.132 559.335 131.079 559.072 131.079 558.807C131.079 558.542 131.131 558.28 131.233 558.035C131.335 557.791 131.485 557.569 131.674 557.383C131.863 557.197 132.086 557.05 132.332 556.952C132.578 556.853 132.841 556.804 133.106 556.808C133.371 556.812 133.633 556.869 133.876 556.975C134.119 557.081 134.338 557.234 134.521 557.426L140.472 563.464L160.363 544.718C160.749 544.355 161.263 544.16 161.793 544.176C162.322 544.192 162.824 544.417 163.187 544.803Z" fill="white"/>
<path d="M194.724 555.58C194.724 553.389 195.218 551.424 196.206 549.684C197.194 547.922 198.537 546.547 200.234 545.559C201.953 544.571 203.854 544.077 205.937 544.077C208.386 544.077 210.524 544.667 212.35 545.849C214.176 547.03 215.508 548.706 216.346 550.876H212.833C212.21 549.522 211.308 548.481 210.126 547.75C208.966 547.02 207.57 546.655 205.937 546.655C204.369 546.655 202.962 547.02 201.716 547.75C200.47 548.481 199.493 549.522 198.784 550.876C198.075 552.208 197.721 553.776 197.721 555.58C197.721 557.363 198.075 558.932 198.784 560.285C199.493 561.617 200.47 562.648 201.716 563.378C202.962 564.109 204.369 564.474 205.937 564.474C207.57 564.474 208.966 564.119 210.126 563.411C211.308 562.68 212.21 561.638 212.833 560.285H216.346C215.508 562.433 214.176 564.098 212.35 565.279C210.524 566.439 208.386 567.02 205.937 567.02C203.854 567.02 201.953 566.536 200.234 565.569C198.537 564.581 197.194 563.217 196.206 561.477C195.218 559.737 194.724 557.771 194.724 555.58ZM236.371 549.168V566.826H233.439V564.216C232.88 565.118 232.096 565.827 231.086 566.343C230.098 566.837 229.003 567.084 227.8 567.084C226.425 567.084 225.189 566.805 224.094 566.246C222.998 565.666 222.128 564.807 221.484 563.668C220.861 562.53 220.549 561.144 220.549 559.512V549.168H223.449V559.125C223.449 560.865 223.89 562.208 224.771 563.153C225.651 564.076 226.854 564.538 228.38 564.538C229.948 564.538 231.183 564.055 232.085 563.088C232.987 562.122 233.439 560.715 233.439 558.867V549.168H236.371ZM247.573 567.116C246.22 567.116 245.006 566.891 243.932 566.439C242.858 565.967 242.009 565.322 241.386 564.506C240.763 563.668 240.42 562.712 240.355 561.638H243.384C243.47 562.519 243.878 563.239 244.609 563.797C245.361 564.356 246.338 564.635 247.541 564.635C248.658 564.635 249.539 564.388 250.183 563.894C250.828 563.4 251.15 562.777 251.15 562.025C251.15 561.252 250.806 560.682 250.119 560.317C249.431 559.93 248.368 559.555 246.929 559.189C245.618 558.846 244.544 558.502 243.706 558.158C242.89 557.793 242.181 557.267 241.58 556.579C241 555.87 240.71 554.947 240.71 553.808C240.71 552.906 240.978 552.079 241.515 551.327C242.052 550.575 242.815 549.984 243.803 549.555C244.791 549.103 245.919 548.878 247.186 548.878C249.141 548.878 250.72 549.372 251.923 550.36C253.126 551.348 253.771 552.702 253.857 554.42H250.924C250.86 553.497 250.484 552.755 249.797 552.197C249.131 551.638 248.228 551.359 247.09 551.359C246.037 551.359 245.199 551.585 244.576 552.036C243.953 552.487 243.642 553.078 243.642 553.808C243.642 554.388 243.825 554.871 244.19 555.258C244.576 555.623 245.049 555.924 245.608 556.16C246.188 556.375 246.982 556.622 247.992 556.901C249.26 557.245 250.291 557.589 251.085 557.933C251.88 558.255 252.557 558.749 253.116 559.415C253.696 560.081 253.996 560.951 254.018 562.025C254.018 562.992 253.749 563.862 253.212 564.635C252.675 565.408 251.913 566.021 250.924 566.472C249.958 566.901 248.841 567.116 247.573 567.116ZM261.734 551.585V561.993C261.734 562.852 261.917 563.464 262.282 563.829C262.647 564.173 263.281 564.345 264.183 564.345H266.342V566.826H263.7C262.067 566.826 260.842 566.45 260.026 565.698C259.21 564.946 258.802 563.711 258.802 561.993V551.585H256.514V549.168H258.802V544.721H261.734V549.168H266.342V551.585H261.734ZM277.596 567.116C275.942 567.116 274.438 566.74 273.085 565.988C271.753 565.237 270.7 564.173 269.927 562.798C269.175 561.402 268.799 559.791 268.799 557.965C268.799 556.16 269.186 554.571 269.959 553.196C270.754 551.799 271.828 550.736 273.181 550.006C274.535 549.254 276.049 548.878 277.725 548.878C279.4 548.878 280.915 549.254 282.268 550.006C283.622 550.736 284.685 551.789 285.458 553.164C286.253 554.538 286.651 556.139 286.651 557.965C286.651 559.791 286.242 561.402 285.426 562.798C284.631 564.173 283.547 565.237 282.172 565.988C280.797 566.74 279.272 567.116 277.596 567.116ZM277.596 564.538C278.649 564.538 279.637 564.291 280.561 563.797C281.484 563.303 282.225 562.562 282.784 561.574C283.364 560.586 283.654 559.383 283.654 557.965C283.654 556.547 283.375 555.344 282.816 554.356C282.258 553.368 281.527 552.637 280.625 552.165C279.723 551.671 278.745 551.424 277.693 551.424C276.619 551.424 275.63 551.671 274.728 552.165C273.847 552.637 273.138 553.368 272.601 554.356C272.064 555.344 271.796 556.547 271.796 557.965C271.796 559.404 272.054 560.618 272.569 561.606C273.106 562.594 273.815 563.335 274.696 563.829C275.577 564.302 276.543 564.538 277.596 564.538ZM311.741 548.846C313.116 548.846 314.34 549.136 315.415 549.716C316.489 550.274 317.337 551.123 317.96 552.261C318.583 553.4 318.895 554.785 318.895 556.418V566.826H315.995V556.837C315.995 555.076 315.554 553.733 314.673 552.809C313.814 551.864 312.643 551.391 311.161 551.391C309.636 551.391 308.422 551.885 307.52 552.874C306.618 553.84 306.166 555.247 306.166 557.095V566.826H303.266V556.837C303.266 555.076 302.826 553.733 301.945 552.809C301.086 551.864 299.915 551.391 298.433 551.391C296.908 551.391 295.694 551.885 294.792 552.874C293.89 553.84 293.438 555.247 293.438 557.095V566.826H290.506V549.168H293.438V551.714C294.018 550.79 294.792 550.081 295.758 549.587C296.747 549.093 297.831 548.846 299.013 548.846C300.495 548.846 301.806 549.179 302.944 549.845C304.083 550.511 304.931 551.488 305.49 552.777C305.984 551.531 306.8 550.564 307.939 549.877C309.077 549.189 310.345 548.846 311.741 548.846ZM325.219 546.3C324.661 546.3 324.188 546.107 323.801 545.72C323.415 545.333 323.221 544.861 323.221 544.302C323.221 543.744 323.415 543.271 323.801 542.884C324.188 542.498 324.661 542.304 325.219 542.304C325.756 542.304 326.207 542.498 326.572 542.884C326.959 543.271 327.153 543.744 327.153 544.302C327.153 544.861 326.959 545.333 326.572 545.72C326.207 546.107 325.756 546.3 325.219 546.3ZM326.637 549.168V566.826H323.705V549.168H326.637ZM333.826 564.409H342.494V566.826H330.474V564.409L339.046 551.552H330.539V549.168H342.429V551.552L333.826 564.409ZM345.203 557.933C345.203 556.128 345.568 554.549 346.299 553.196C347.029 551.821 348.028 550.758 349.295 550.006C350.584 549.254 352.013 548.878 353.581 548.878C355.128 548.878 356.47 549.211 357.609 549.877C358.747 550.543 359.596 551.381 360.154 552.39V549.168H363.119V566.826H360.154V563.539C359.574 564.571 358.704 565.43 357.544 566.117C356.406 566.783 355.074 567.116 353.549 567.116C351.981 567.116 350.563 566.73 349.295 565.956C348.028 565.183 347.029 564.098 346.299 562.702C345.568 561.305 345.203 559.716 345.203 557.933ZM360.154 557.965C360.154 556.633 359.886 555.473 359.349 554.485C358.812 553.497 358.081 552.745 357.158 552.229C356.255 551.692 355.257 551.424 354.161 551.424C353.065 551.424 352.066 551.681 351.164 552.197C350.262 552.712 349.542 553.464 349.005 554.453C348.468 555.441 348.2 556.601 348.2 557.933C348.2 559.286 348.468 560.467 349.005 561.477C349.542 562.465 350.262 563.228 351.164 563.765C352.066 564.281 353.065 564.538 354.161 564.538C355.257 564.538 356.255 564.281 357.158 563.765C358.081 563.228 358.812 562.465 359.349 561.477C359.886 560.467 360.154 559.297 360.154 557.965ZM371.007 552.455C371.608 551.402 372.489 550.543 373.649 549.877C374.809 549.211 376.13 548.878 377.612 548.878C379.202 548.878 380.631 549.254 381.898 550.006C383.165 550.758 384.164 551.821 384.895 553.196C385.625 554.549 385.99 556.128 385.99 557.933C385.99 559.716 385.625 561.305 384.895 562.702C384.164 564.098 383.155 565.183 381.866 565.956C380.598 566.73 379.18 567.116 377.612 567.116C376.087 567.116 374.744 566.783 373.584 566.117C372.446 565.451 371.587 564.603 371.007 563.572V566.826H368.074V542.981H371.007V552.455ZM382.994 557.933C382.994 556.601 382.725 555.441 382.188 554.453C381.651 553.464 380.921 552.712 379.997 552.197C379.095 551.681 378.096 551.424 377 551.424C375.926 551.424 374.927 551.692 374.003 552.229C373.101 552.745 372.371 553.507 371.812 554.517C371.275 555.505 371.007 556.654 371.007 557.965C371.007 559.297 371.275 560.467 371.812 561.477C372.371 562.465 373.101 563.228 374.003 563.765C374.927 564.281 375.926 564.538 377 564.538C378.096 564.538 379.095 564.281 379.997 563.765C380.921 563.228 381.651 562.465 382.188 561.477C382.725 560.467 382.994 559.286 382.994 557.933ZM392.782 542.981V566.826H389.85V542.981H392.782ZM413.891 557.32C413.891 557.879 413.859 558.47 413.795 559.093H399.681C399.788 560.833 400.379 562.197 401.453 563.185C402.549 564.152 403.87 564.635 405.417 564.635C406.684 564.635 407.737 564.345 408.575 563.765C409.434 563.163 410.035 562.369 410.379 561.38H413.537C413.064 563.078 412.119 564.463 410.701 565.537C409.284 566.59 407.522 567.116 405.417 567.116C403.741 567.116 402.237 566.74 400.906 565.988C399.595 565.237 398.564 564.173 397.812 562.798C397.06 561.402 396.684 559.791 396.684 557.965C396.684 556.139 397.049 554.538 397.78 553.164C398.51 551.789 399.531 550.736 400.841 550.006C402.173 549.254 403.698 548.878 405.417 548.878C407.092 548.878 408.575 549.243 409.864 549.974C411.152 550.704 412.141 551.714 412.828 553.002C413.537 554.27 413.891 555.709 413.891 557.32ZM410.862 556.708C410.862 555.591 410.615 554.635 410.121 553.84C409.627 553.024 408.951 552.412 408.091 552.004C407.253 551.574 406.319 551.359 405.288 551.359C403.806 551.359 402.538 551.832 401.486 552.777C400.454 553.722 399.864 555.033 399.713 556.708H410.862ZM427.932 546.3C427.373 546.3 426.9 546.107 426.514 545.72C426.149 545.333 425.966 544.861 425.966 544.302C425.966 543.744 426.149 543.271 426.514 542.884C426.9 542.498 427.373 542.304 427.932 542.304C428.49 542.304 428.952 542.498 429.317 542.884C429.704 543.271 429.897 543.744 429.897 544.302C429.897 544.861 429.704 545.333 429.317 545.72C428.952 546.107 428.49 546.3 427.932 546.3ZM429.382 570.661C429.382 572.229 428.984 573.378 428.189 574.109C427.395 574.839 426.235 575.204 424.709 575.204H423.001V572.723H424.226C425.042 572.723 425.612 572.562 425.934 572.24C426.277 571.917 426.449 571.37 426.449 570.596V549.168H429.382V570.661ZM442.047 567.116C440.393 567.116 438.889 566.74 437.536 565.988C436.204 565.237 435.151 564.173 434.378 562.798C433.626 561.402 433.25 559.791 433.25 557.965C433.25 556.16 433.637 554.571 434.41 553.196C435.205 551.799 436.279 550.736 437.632 550.006C438.986 549.254 440.5 548.878 442.176 548.878C443.851 548.878 445.366 549.254 446.719 550.006C448.073 550.736 449.136 551.789 449.909 553.164C450.704 554.538 451.101 556.139 451.101 557.965C451.101 559.791 450.693 561.402 449.877 562.798C449.082 564.173 447.997 565.237 446.622 565.988C445.248 566.74 443.722 567.116 442.047 567.116ZM442.047 564.538C443.099 564.538 444.088 564.291 445.011 563.797C445.935 563.303 446.676 562.562 447.235 561.574C447.815 560.586 448.105 559.383 448.105 557.965C448.105 556.547 447.825 555.344 447.267 554.356C446.708 553.368 445.978 552.637 445.076 552.165C444.174 551.671 443.196 551.424 442.143 551.424C441.069 551.424 440.081 551.671 439.179 552.165C438.298 552.637 437.589 553.368 437.052 554.356C436.515 555.344 436.247 556.547 436.247 557.965C436.247 559.404 436.504 560.618 437.02 561.606C437.557 562.594 438.266 563.335 439.147 563.829C440.027 564.302 440.994 564.538 442.047 564.538ZM457.889 552.455C458.491 551.402 459.371 550.543 460.531 549.877C461.692 549.211 463.013 548.878 464.495 548.878C466.085 548.878 467.513 549.254 468.781 550.006C470.048 550.758 471.047 551.821 471.777 553.196C472.508 554.549 472.873 556.128 472.873 557.933C472.873 559.716 472.508 561.305 471.777 562.702C471.047 564.098 470.037 565.183 468.748 565.956C467.481 566.73 466.063 567.116 464.495 567.116C462.97 567.116 461.627 566.783 460.467 566.117C459.329 565.451 458.469 564.603 457.889 563.572V566.826H454.957V542.981H457.889V552.455ZM469.876 557.933C469.876 556.601 469.608 555.441 469.071 554.453C468.534 553.464 467.803 552.712 466.879 552.197C465.977 551.681 464.978 551.424 463.883 551.424C462.809 551.424 461.81 551.692 460.886 552.229C459.984 552.745 459.253 553.507 458.695 554.517C458.158 555.505 457.889 556.654 457.889 557.965C457.889 559.297 458.158 560.467 458.695 561.477C459.253 562.465 459.984 563.228 460.886 563.765C461.81 564.281 462.809 564.538 463.883 564.538C464.978 564.538 465.977 564.281 466.879 563.765C467.803 563.228 468.534 562.465 469.071 561.477C469.608 560.467 469.876 559.286 469.876 557.933ZM488.9 551.585V561.993C488.9 562.852 489.083 563.464 489.448 563.829C489.813 564.173 490.447 564.345 491.349 564.345H493.508V566.826H490.866C489.233 566.826 488.009 566.45 487.192 565.698C486.376 564.946 485.968 563.711 485.968 561.993V551.585H483.68V549.168H485.968V544.721H488.9V549.168H493.508V551.585H488.9ZM505.826 548.846C507.157 548.846 508.36 549.136 509.435 549.716C510.509 550.274 511.346 551.123 511.948 552.261C512.571 553.4 512.882 554.785 512.882 556.418V566.826H509.982V556.837C509.982 555.076 509.542 553.733 508.661 552.809C507.78 551.864 506.577 551.391 505.052 551.391C503.505 551.391 502.27 551.875 501.347 552.841C500.444 553.808 499.993 555.215 499.993 557.063V566.826H497.061V542.981H499.993V551.681C500.573 550.779 501.368 550.081 502.378 549.587C503.409 549.093 504.558 548.846 505.826 548.846ZM520.605 552.036C521.12 551.026 521.851 550.242 522.796 549.684C523.762 549.125 524.933 548.846 526.308 548.846V551.875H525.535C522.248 551.875 520.605 553.658 520.605 557.224V566.826H517.672V549.168H520.605V552.036ZM545.804 557.32C545.804 557.879 545.772 558.47 545.708 559.093H531.594C531.702 560.833 532.292 562.197 533.366 563.185C534.462 564.152 535.783 564.635 537.33 564.635C538.597 564.635 539.65 564.345 540.488 563.765C541.347 563.163 541.948 562.369 542.292 561.38H545.45C544.977 563.078 544.032 564.463 542.614 565.537C541.197 566.59 539.435 567.116 537.33 567.116C535.654 567.116 534.15 566.74 532.819 565.988C531.508 565.237 530.477 564.173 529.725 562.798C528.973 561.402 528.597 559.791 528.597 557.965C528.597 556.139 528.963 554.538 529.693 553.164C530.423 551.789 531.444 550.736 532.754 550.006C534.086 549.254 535.611 548.878 537.33 548.878C539.005 548.878 540.488 549.243 541.777 549.974C543.066 550.704 544.054 551.714 544.741 553.002C545.45 554.27 545.804 555.709 545.804 557.32ZM542.776 556.708C542.776 555.591 542.528 554.635 542.034 553.84C541.54 553.024 540.864 552.412 540.004 552.004C539.167 551.574 538.232 551.359 537.201 551.359C535.719 551.359 534.451 551.832 533.399 552.777C532.367 553.722 531.777 555.033 531.626 556.708H542.776ZM555.926 567.116C554.573 567.116 553.359 566.891 552.285 566.439C551.211 565.967 550.362 565.322 549.739 564.506C549.117 563.668 548.773 562.712 548.708 561.638H551.737C551.823 562.519 552.231 563.239 552.962 563.797C553.714 564.356 554.691 564.635 555.894 564.635C557.011 564.635 557.892 564.388 558.536 563.894C559.181 563.4 559.503 562.777 559.503 562.025C559.503 561.252 559.159 560.682 558.472 560.317C557.785 559.93 556.721 559.555 555.282 559.189C553.971 558.846 552.897 558.502 552.06 558.158C551.243 557.793 550.534 557.267 549.933 556.579C549.353 555.87 549.063 554.947 549.063 553.808C549.063 552.906 549.331 552.079 549.868 551.327C550.405 550.575 551.168 549.984 552.156 549.555C553.144 549.103 554.272 548.878 555.54 548.878C557.495 548.878 559.073 549.372 560.276 550.36C561.479 551.348 562.124 552.702 562.21 554.42H559.278C559.213 553.497 558.837 552.755 558.15 552.197C557.484 551.638 556.582 551.359 555.443 551.359C554.39 551.359 553.553 551.585 552.93 552.036C552.307 552.487 551.995 553.078 551.995 553.808C551.995 554.388 552.178 554.871 552.543 555.258C552.93 555.623 553.402 555.924 553.961 556.16C554.541 556.375 555.336 556.622 556.345 556.901C557.613 557.245 558.644 557.589 559.439 557.933C560.233 558.255 560.91 558.749 561.469 559.415C562.049 560.081 562.349 560.951 562.371 562.025C562.371 562.992 562.102 563.862 561.565 564.635C561.028 565.408 560.266 566.021 559.278 566.472C558.311 566.901 557.194 567.116 555.926 567.116ZM575.275 548.846C576.607 548.846 577.81 549.136 578.884 549.716C579.958 550.274 580.796 551.123 581.397 552.261C582.02 553.4 582.332 554.785 582.332 556.418V566.826H579.432V556.837C579.432 555.076 578.991 553.733 578.111 552.809C577.23 551.864 576.027 551.391 574.502 551.391C572.955 551.391 571.72 551.875 570.796 552.841C569.894 553.808 569.443 555.215 569.443 557.063V566.826H566.51V542.981H569.443V551.681C570.023 550.779 570.817 550.081 571.827 549.587C572.858 549.093 574.008 548.846 575.275 548.846ZM594.823 567.116C593.169 567.116 591.665 566.74 590.312 565.988C588.98 565.237 587.927 564.173 587.154 562.798C586.402 561.402 586.026 559.791 586.026 557.965C586.026 556.16 586.413 554.571 587.186 553.196C587.981 551.799 589.055 550.736 590.408 550.006C591.762 549.254 593.276 548.878 594.952 548.878C596.628 548.878 598.142 549.254 599.495 550.006C600.849 550.736 601.912 551.789 602.685 553.164C603.48 554.538 603.878 556.139 603.878 557.965C603.878 559.791 603.47 561.402 602.653 562.798C601.858 564.173 600.774 565.237 599.399 565.988C598.024 566.74 596.499 567.116 594.823 567.116ZM594.823 564.538C595.876 564.538 596.864 564.291 597.788 563.797C598.711 563.303 599.452 562.562 600.011 561.574C600.591 560.586 600.881 559.383 600.881 557.965C600.881 556.547 600.602 555.344 600.043 554.356C599.485 553.368 598.754 552.637 597.852 552.165C596.95 551.671 595.972 551.424 594.92 551.424C593.846 551.424 592.857 551.671 591.955 552.165C591.074 552.637 590.366 553.368 589.828 554.356C589.291 555.344 589.023 556.547 589.023 557.965C589.023 559.404 589.281 560.618 589.796 561.606C590.333 562.594 591.042 563.335 591.923 563.829C592.804 564.302 593.77 564.538 594.823 564.538ZM610.665 542.981V566.826H607.733V542.981H610.665ZM614.567 557.933C614.567 556.128 614.933 554.549 615.663 553.196C616.393 551.821 617.392 550.758 618.66 550.006C619.949 549.254 621.388 548.878 622.978 548.878C624.353 548.878 625.631 549.2 626.812 549.845C627.994 550.468 628.896 551.295 629.519 552.326V542.981H632.483V566.826H629.519V563.507C628.939 564.56 628.08 565.43 626.941 566.117C625.803 566.783 624.471 567.116 622.945 567.116C621.377 567.116 619.949 566.73 618.66 565.956C617.392 565.183 616.393 564.098 615.663 562.702C614.933 561.305 614.567 559.716 614.567 557.933ZM629.519 557.965C629.519 556.633 629.25 555.473 628.713 554.485C628.176 553.497 627.446 552.745 626.522 552.229C625.62 551.692 624.621 551.424 623.525 551.424C622.43 551.424 621.431 551.681 620.529 552.197C619.626 552.712 618.907 553.464 618.37 554.453C617.833 555.441 617.564 556.601 617.564 557.933C617.564 559.286 617.833 560.467 618.37 561.477C618.907 562.465 619.626 563.228 620.529 563.765C621.431 564.281 622.43 564.538 623.525 564.538C624.621 564.538 625.62 564.281 626.522 563.765C627.446 563.228 628.176 562.465 628.713 561.477C629.25 560.467 629.519 559.297 629.519 557.965Z" fill="white"/>
<path d="M163.187 607.421C163.55 607.807 163.745 608.321 163.729 608.85C163.713 609.38 163.487 609.881 163.102 610.245L141.979 630.152C141.549 630.558 140.976 630.779 140.385 630.768C139.794 630.757 139.23 630.515 138.815 630.094L131.676 622.849C131.487 622.663 131.337 622.441 131.235 622.197C131.132 621.953 131.079 621.69 131.079 621.425C131.079 621.16 131.131 620.898 131.233 620.653C131.335 620.409 131.485 620.187 131.674 620.001C131.863 619.815 132.086 619.668 132.332 619.57C132.578 619.471 132.841 619.422 133.106 619.426C133.371 619.43 133.633 619.487 133.876 619.593C134.119 619.699 134.338 619.852 134.521 620.044L140.472 626.082L160.363 607.336C160.749 606.973 161.263 606.778 161.793 606.794C162.322 606.81 162.824 607.035 163.187 607.421Z" fill="white"/>
<path d="M198.301 626.899H209.256V629.444H194.821V627.124L205.712 609.53H194.949V606.985H209.192V609.305L198.301 626.899ZM229.364 619.939C229.364 620.497 229.332 621.088 229.267 621.711H215.154C215.261 623.451 215.852 624.815 216.926 625.803C218.022 626.77 219.343 627.253 220.889 627.253C222.157 627.253 223.21 626.963 224.047 626.383C224.907 625.782 225.508 624.987 225.852 623.999H229.01C228.537 625.696 227.592 627.081 226.174 628.155C224.756 629.208 222.995 629.734 220.889 629.734C219.214 629.734 217.71 629.358 216.378 628.607C215.068 627.855 214.037 626.791 213.285 625.416C212.533 624.02 212.157 622.409 212.157 620.583C212.157 618.757 212.522 617.157 213.253 615.782C213.983 614.407 215.003 613.354 216.314 612.624C217.646 611.872 219.171 611.496 220.889 611.496C222.565 611.496 224.047 611.861 225.336 612.592C226.625 613.322 227.613 614.332 228.301 615.621C229.01 616.888 229.364 618.327 229.364 619.939ZM226.335 619.326C226.335 618.209 226.088 617.253 225.594 616.458C225.1 615.642 224.423 615.03 223.564 614.622C222.726 614.192 221.792 613.977 220.761 613.977C219.278 613.977 218.011 614.45 216.958 615.395C215.927 616.34 215.336 617.651 215.186 619.326H226.335ZM236.167 614.654C236.683 613.644 237.413 612.86 238.358 612.302C239.325 611.743 240.496 611.464 241.87 611.464V614.493H241.097C237.81 614.493 236.167 616.276 236.167 619.842V629.444H233.235V611.786H236.167V614.654ZM252.957 629.734C251.303 629.734 249.799 629.358 248.445 628.607C247.114 627.855 246.061 626.791 245.288 625.416C244.536 624.02 244.16 622.409 244.16 620.583C244.16 618.779 244.546 617.189 245.32 615.814C246.115 614.418 247.189 613.354 248.542 612.624C249.895 611.872 251.41 611.496 253.086 611.496C254.761 611.496 256.276 611.872 257.629 612.624C258.982 613.354 260.046 614.407 260.819 615.782C261.614 617.157 262.011 618.757 262.011 620.583C262.011 622.409 261.603 624.02 260.787 625.416C259.992 626.791 258.907 627.855 257.532 628.607C256.158 629.358 254.632 629.734 252.957 629.734ZM252.957 627.156C254.009 627.156 254.997 626.909 255.921 626.415C256.845 625.921 257.586 625.18 258.145 624.192C258.725 623.204 259.015 622.001 259.015 620.583C259.015 619.165 258.735 617.962 258.177 616.974C257.618 615.986 256.888 615.255 255.986 614.783C255.083 614.289 254.106 614.042 253.053 614.042C251.979 614.042 250.991 614.289 250.089 614.783C249.208 615.255 248.499 615.986 247.962 616.974C247.425 617.962 247.157 619.165 247.157 620.583C247.157 622.022 247.414 623.236 247.93 624.224C248.467 625.212 249.176 625.954 250.057 626.448C250.937 626.92 251.904 627.156 252.957 627.156ZM273.362 620.583C273.362 618.757 273.727 617.167 274.458 615.814C275.188 614.439 276.198 613.376 277.486 612.624C278.797 611.872 280.29 611.496 281.965 611.496C284.135 611.496 285.918 612.022 287.315 613.075C288.732 614.128 289.667 615.588 290.118 617.457H286.96C286.659 616.383 286.069 615.535 285.188 614.912C284.329 614.289 283.254 613.977 281.965 613.977C280.29 613.977 278.937 614.557 277.905 615.717C276.874 616.856 276.359 618.478 276.359 620.583C276.359 622.71 276.874 624.353 277.905 625.513C278.937 626.673 280.29 627.253 281.965 627.253C283.254 627.253 284.329 626.952 285.188 626.351C286.047 625.749 286.638 624.89 286.96 623.773H290.118C289.645 625.578 288.7 627.028 287.282 628.123C285.864 629.197 284.092 629.734 281.965 629.734C280.29 629.734 278.797 629.358 277.486 628.607C276.198 627.855 275.188 626.791 274.458 625.416C273.727 624.042 273.362 622.43 273.362 620.583ZM301.732 629.734C300.078 629.734 298.574 629.358 297.221 628.607C295.889 627.855 294.836 626.791 294.063 625.416C293.311 624.02 292.935 622.409 292.935 620.583C292.935 618.779 293.322 617.189 294.095 615.814C294.89 614.418 295.964 613.354 297.317 612.624C298.671 611.872 300.185 611.496 301.861 611.496C303.536 611.496 305.051 611.872 306.404 612.624C307.758 613.354 308.821 614.407 309.594 615.782C310.389 617.157 310.786 618.757 310.786 620.583C310.786 622.409 310.378 624.02 309.562 625.416C308.767 626.791 307.682 627.855 306.307 628.607C304.933 629.358 303.407 629.734 301.732 629.734ZM301.732 627.156C302.784 627.156 303.773 626.909 304.696 626.415C305.62 625.921 306.361 625.18 306.92 624.192C307.5 623.204 307.79 622.001 307.79 620.583C307.79 619.165 307.51 617.962 306.952 616.974C306.393 615.986 305.663 615.255 304.761 614.783C303.859 614.289 302.881 614.042 301.828 614.042C300.754 614.042 299.766 614.289 298.864 614.783C297.983 615.255 297.274 615.986 296.737 616.974C296.2 617.962 295.932 619.165 295.932 620.583C295.932 622.022 296.189 623.236 296.705 624.224C297.242 625.212 297.951 625.954 298.832 626.448C299.712 626.92 300.679 627.156 301.732 627.156ZM323.245 611.464C325.394 611.464 327.134 612.119 328.466 613.429C329.797 614.718 330.463 616.587 330.463 619.036V629.444H327.563V619.455C327.563 617.694 327.123 616.351 326.242 615.427C325.361 614.482 324.158 614.009 322.633 614.009C321.087 614.009 319.851 614.493 318.928 615.46C318.025 616.426 317.574 617.833 317.574 619.681V629.444H314.642V611.786H317.574V614.3C318.154 613.397 318.938 612.699 319.926 612.205C320.936 611.711 322.042 611.464 323.245 611.464ZM342.439 614.203H338.733V629.444H335.801V614.203H333.513V611.786H335.801V610.529C335.801 608.553 336.306 607.114 337.316 606.212C338.347 605.288 339.99 604.826 342.246 604.826V607.275C340.957 607.275 340.044 607.533 339.507 608.048C338.991 608.542 338.733 609.369 338.733 610.529V611.786H342.439V614.203ZM347.372 608.918C346.814 608.918 346.341 608.725 345.955 608.338C345.568 607.952 345.375 607.479 345.375 606.92C345.375 606.362 345.568 605.889 345.955 605.503C346.341 605.116 346.814 604.923 347.372 604.923C347.91 604.923 348.361 605.116 348.726 605.503C349.113 605.889 349.306 606.362 349.306 606.92C349.306 607.479 349.113 607.952 348.726 608.338C348.361 608.725 347.91 608.918 347.372 608.918ZM348.79 611.786V629.444H345.858V611.786H348.79ZM361.07 611.496C362.596 611.496 363.927 611.829 365.066 612.495C366.226 613.161 367.085 613.999 367.644 615.008V611.786H370.608V629.831C370.608 631.442 370.265 632.871 369.577 634.117C368.89 635.384 367.902 636.372 366.613 637.081C365.345 637.79 363.863 638.145 362.166 638.145C359.846 638.145 357.912 637.597 356.366 636.501C354.819 635.406 353.906 633.913 353.627 632.022H356.527C356.849 633.096 357.515 633.956 358.525 634.6C359.534 635.266 360.748 635.599 362.166 635.599C363.777 635.599 365.087 635.094 366.097 634.084C367.128 633.075 367.644 631.657 367.644 629.831V626.125C367.064 627.156 366.204 628.016 365.066 628.703C363.927 629.391 362.596 629.734 361.07 629.734C359.502 629.734 358.074 629.348 356.785 628.574C355.517 627.801 354.518 626.716 353.788 625.32C353.057 623.923 352.692 622.334 352.692 620.551C352.692 618.746 353.057 617.167 353.788 615.814C354.518 614.439 355.517 613.376 356.785 612.624C358.074 611.872 359.502 611.496 361.07 611.496ZM367.644 620.583C367.644 619.251 367.375 618.091 366.838 617.103C366.301 616.115 365.571 615.363 364.647 614.847C363.745 614.31 362.746 614.042 361.65 614.042C360.555 614.042 359.556 614.3 358.654 614.815C357.751 615.331 357.032 616.083 356.495 617.071C355.958 618.059 355.689 619.219 355.689 620.551C355.689 621.904 355.958 623.086 356.495 624.095C357.032 625.083 357.751 625.846 358.654 626.383C359.556 626.899 360.555 627.156 361.65 627.156C362.746 627.156 363.745 626.899 364.647 626.383C365.571 625.846 366.301 625.083 366.838 624.095C367.375 623.086 367.644 621.915 367.644 620.583ZM391.224 611.786V629.444H388.292V626.834C387.733 627.737 386.949 628.445 385.939 628.961C384.951 629.455 383.856 629.702 382.653 629.702C381.278 629.702 380.043 629.423 378.947 628.864C377.851 628.284 376.981 627.425 376.337 626.286C375.714 625.148 375.402 623.762 375.402 622.13V611.786H378.303V621.743C378.303 623.483 378.743 624.826 379.624 625.771C380.504 626.695 381.707 627.156 383.233 627.156C384.801 627.156 386.036 626.673 386.938 625.706C387.841 624.74 388.292 623.333 388.292 621.485V611.786H391.224ZM399.107 614.654C399.623 613.644 400.353 612.86 401.298 612.302C402.265 611.743 403.436 611.464 404.811 611.464V614.493H404.037C400.751 614.493 399.107 616.276 399.107 619.842V629.444H396.175V611.786H399.107V614.654ZM407.1 620.551C407.1 618.746 407.465 617.167 408.196 615.814C408.926 614.439 409.925 613.376 411.192 612.624C412.481 611.872 413.91 611.496 415.478 611.496C417.025 611.496 418.367 611.829 419.506 612.495C420.645 613.161 421.493 613.999 422.052 615.008V611.786H425.016V629.444H422.052V626.158C421.472 627.189 420.602 628.048 419.442 628.735C418.303 629.401 416.971 629.734 415.446 629.734C413.878 629.734 412.46 629.348 411.192 628.574C409.925 627.801 408.926 626.716 408.196 625.32C407.465 623.923 407.1 622.334 407.1 620.551ZM422.052 620.583C422.052 619.251 421.783 618.091 421.246 617.103C420.709 616.115 419.979 615.363 419.055 614.847C418.153 614.31 417.154 614.042 416.058 614.042C414.963 614.042 413.964 614.3 413.061 614.815C412.159 615.331 411.44 616.083 410.902 617.071C410.365 618.059 410.097 619.219 410.097 620.551C410.097 621.904 410.365 623.086 410.902 624.095C411.44 625.083 412.159 625.846 413.061 626.383C413.964 626.899 414.963 627.156 416.058 627.156C417.154 627.156 418.153 626.899 419.055 626.383C419.979 625.846 420.709 625.083 421.246 624.095C421.783 623.086 422.052 621.915 422.052 620.583ZM433.548 614.203V624.611C433.548 625.47 433.731 626.082 434.096 626.448C434.461 626.791 435.095 626.963 435.997 626.963H438.156V629.444H435.514C433.881 629.444 432.657 629.068 431.84 628.317C431.024 627.565 430.616 626.329 430.616 624.611V614.203H428.328V611.786H430.616V607.339H433.548V611.786H438.156V614.203H433.548ZM443.223 608.918C442.665 608.918 442.192 608.725 441.806 608.338C441.419 607.952 441.226 607.479 441.226 606.92C441.226 606.362 441.419 605.889 441.806 605.503C442.192 605.116 442.665 604.923 443.223 604.923C443.76 604.923 444.212 605.116 444.577 605.503C444.963 605.889 445.157 606.362 445.157 606.92C445.157 607.479 444.963 607.952 444.577 608.338C444.212 608.725 443.76 608.918 443.223 608.918ZM444.641 611.786V629.444H441.709V611.786H444.641ZM457.34 629.734C455.686 629.734 454.182 629.358 452.829 628.607C451.497 627.855 450.444 626.791 449.671 625.416C448.919 624.02 448.543 622.409 448.543 620.583C448.543 618.779 448.93 617.189 449.703 615.814C450.498 614.418 451.572 613.354 452.926 612.624C454.279 611.872 455.793 611.496 457.469 611.496C459.145 611.496 460.659 611.872 462.012 612.624C463.366 613.354 464.429 614.407 465.203 615.782C465.997 617.157 466.395 618.757 466.395 620.583C466.395 622.409 465.987 624.02 465.17 625.416C464.376 626.791 463.291 627.855 461.916 628.607C460.541 629.358 459.016 629.734 457.34 629.734ZM457.34 627.156C458.393 627.156 459.381 626.909 460.305 626.415C461.228 625.921 461.97 625.18 462.528 624.192C463.108 623.204 463.398 622.001 463.398 620.583C463.398 619.165 463.119 617.962 462.56 616.974C462.002 615.986 461.271 615.255 460.369 614.783C459.467 614.289 458.489 614.042 457.437 614.042C456.363 614.042 455.375 614.289 454.472 614.783C453.592 615.255 452.883 615.986 452.346 616.974C451.809 617.962 451.54 619.165 451.54 620.583C451.54 622.022 451.798 623.236 452.313 624.224C452.85 625.212 453.559 625.954 454.44 626.448C455.321 626.92 456.288 627.156 457.34 627.156ZM478.854 611.464C481.002 611.464 482.742 612.119 484.074 613.429C485.406 614.718 486.072 616.587 486.072 619.036V629.444H483.172V619.455C483.172 617.694 482.731 616.351 481.851 615.427C480.97 614.482 479.767 614.009 478.242 614.009C476.695 614.009 475.46 614.493 474.536 615.46C473.634 616.426 473.183 617.833 473.183 619.681V629.444H470.25V611.786H473.183V614.3C473.763 613.397 474.547 612.699 475.535 612.205C476.545 611.711 477.651 611.464 478.854 611.464ZM508.056 611.464C510.204 611.464 511.944 612.119 513.276 613.429C514.608 614.718 515.274 616.587 515.274 619.036V629.444H512.374V619.455C512.374 617.694 511.933 616.351 511.053 615.427C510.172 614.482 508.969 614.009 507.444 614.009C505.897 614.009 504.662 614.493 503.738 615.46C502.836 616.426 502.385 617.833 502.385 619.681V629.444H499.452V611.786H502.385V614.3C502.965 613.397 503.749 612.699 504.737 612.205C505.747 611.711 506.853 611.464 508.056 611.464ZM536.175 619.939C536.175 620.497 536.143 621.088 536.079 621.711H521.965C522.072 623.451 522.663 624.815 523.737 625.803C524.833 626.77 526.154 627.253 527.701 627.253C528.968 627.253 530.021 626.963 530.859 626.383C531.718 625.782 532.319 624.987 532.663 623.999H535.821C535.348 625.696 534.403 627.081 532.985 628.155C531.567 629.208 529.806 629.734 527.701 629.734C526.025 629.734 524.521 629.358 523.189 628.607C521.879 627.855 520.848 626.791 520.096 625.416C519.344 624.02 518.968 622.409 518.968 620.583C518.968 618.757 519.333 617.157 520.064 615.782C520.794 614.407 521.815 613.354 523.125 612.624C524.457 611.872 525.982 611.496 527.701 611.496C529.376 611.496 530.859 611.861 532.147 612.592C533.436 613.322 534.425 614.332 535.112 615.621C535.821 616.888 536.175 618.327 536.175 619.939ZM533.146 619.326C533.146 618.209 532.899 617.253 532.405 616.458C531.911 615.642 531.234 615.03 530.375 614.622C529.537 614.192 528.603 613.977 527.572 613.977C526.09 613.977 524.822 614.45 523.769 615.395C522.738 616.34 522.148 617.651 521.997 619.326H533.146ZM538.95 620.583C538.95 618.757 539.315 617.167 540.046 615.814C540.776 614.439 541.786 613.376 543.075 612.624C544.385 611.872 545.878 611.496 547.554 611.496C549.724 611.496 551.507 612.022 552.903 613.075C554.321 614.128 555.255 615.588 555.706 617.457H552.548C552.248 616.383 551.657 615.535 550.776 614.912C549.917 614.289 548.843 613.977 547.554 613.977C545.878 613.977 544.525 614.557 543.494 615.717C542.463 616.856 541.947 618.478 541.947 620.583C541.947 622.71 542.463 624.353 543.494 625.513C544.525 626.673 545.878 627.253 547.554 627.253C548.843 627.253 549.917 626.952 550.776 626.351C551.635 625.749 552.226 624.89 552.548 623.773H555.706C555.234 625.578 554.288 627.028 552.871 628.123C551.453 629.197 549.681 629.734 547.554 629.734C545.878 629.734 544.385 629.358 543.075 628.607C541.786 627.855 540.776 626.791 540.046 625.416C539.315 624.042 538.95 622.43 538.95 620.583ZM575.73 619.939C575.73 620.497 575.698 621.088 575.634 621.711H561.52C561.627 623.451 562.218 624.815 563.292 625.803C564.388 626.77 565.709 627.253 567.256 627.253C568.523 627.253 569.576 626.963 570.414 626.383C571.273 625.782 571.874 624.987 572.218 623.999H575.376C574.903 625.696 573.958 627.081 572.54 628.155C571.122 629.208 569.361 629.734 567.256 629.734C565.58 629.734 564.076 629.358 562.745 628.607C561.434 627.855 560.403 626.791 559.651 625.416C558.899 624.02 558.523 622.409 558.523 620.583C558.523 618.757 558.888 617.157 559.619 615.782C560.349 614.407 561.37 613.354 562.68 612.624C564.012 611.872 565.537 611.496 567.256 611.496C568.931 611.496 570.414 611.861 571.703 612.592C572.991 613.322 573.98 614.332 574.667 615.621C575.376 616.888 575.73 618.327 575.73 619.939ZM572.701 619.326C572.701 618.209 572.454 617.253 571.96 616.458C571.466 615.642 570.79 615.03 569.93 614.622C569.092 614.192 568.158 613.977 567.127 613.977C565.645 613.977 564.377 614.45 563.325 615.395C562.293 616.34 561.703 617.651 561.552 619.326H572.701ZM585.852 629.734C584.499 629.734 583.285 629.509 582.211 629.058C581.137 628.585 580.288 627.941 579.665 627.124C579.042 626.286 578.699 625.331 578.634 624.256H581.663C581.749 625.137 582.157 625.857 582.888 626.415C583.64 626.974 584.617 627.253 585.82 627.253C586.937 627.253 587.818 627.006 588.462 626.512C589.107 626.018 589.429 625.395 589.429 624.643C589.429 623.87 589.085 623.3 588.398 622.935C587.71 622.549 586.647 622.173 585.208 621.807C583.897 621.464 582.823 621.12 581.985 620.776C581.169 620.411 580.46 619.885 579.859 619.197C579.279 618.489 578.989 617.565 578.989 616.426C578.989 615.524 579.257 614.697 579.794 613.945C580.331 613.193 581.094 612.602 582.082 612.173C583.07 611.722 584.198 611.496 585.466 611.496C587.42 611.496 588.999 611.99 590.202 612.978C591.405 613.967 592.05 615.32 592.136 617.038H589.203C589.139 616.115 588.763 615.374 588.076 614.815C587.41 614.257 586.507 613.977 585.369 613.977C584.316 613.977 583.478 614.203 582.855 614.654C582.232 615.105 581.921 615.696 581.921 616.426C581.921 617.006 582.104 617.49 582.469 617.876C582.855 618.241 583.328 618.542 583.887 618.779C584.467 618.993 585.261 619.24 586.271 619.52C587.539 619.863 588.57 620.207 589.365 620.551C590.159 620.873 590.836 621.367 591.395 622.033C591.975 622.699 592.275 623.569 592.297 624.643C592.297 625.61 592.028 626.48 591.491 627.253C590.954 628.027 590.192 628.639 589.203 629.09C588.237 629.52 587.12 629.734 585.852 629.734ZM602.687 629.734C601.334 629.734 600.12 629.509 599.046 629.058C597.972 628.585 597.124 627.941 596.501 627.124C595.878 626.286 595.534 625.331 595.47 624.256H598.498C598.584 625.137 598.993 625.857 599.723 626.415C600.475 626.974 601.452 627.253 602.655 627.253C603.772 627.253 604.653 627.006 605.298 626.512C605.942 626.018 606.264 625.395 606.264 624.643C606.264 623.87 605.921 623.3 605.233 622.935C604.546 622.549 603.482 622.173 602.043 621.807C600.733 621.464 599.659 621.12 598.821 620.776C598.004 620.411 597.296 619.885 596.694 619.197C596.114 618.489 595.824 617.565 595.824 616.426C595.824 615.524 596.093 614.697 596.63 613.945C597.167 613.193 597.929 612.602 598.917 612.173C599.906 611.722 601.033 611.496 602.301 611.496C604.256 611.496 605.835 611.99 607.038 612.978C608.241 613.967 608.885 615.32 608.971 617.038H606.039C605.974 616.115 605.598 615.374 604.911 614.815C604.245 614.257 603.343 613.977 602.204 613.977C601.152 613.977 600.314 614.203 599.691 614.654C599.068 615.105 598.756 615.696 598.756 616.426C598.756 617.006 598.939 617.49 599.304 617.876C599.691 618.241 600.163 618.542 600.722 618.779C601.302 618.993 602.097 619.24 603.106 619.52C604.374 619.863 605.405 620.207 606.2 620.551C606.995 620.873 607.671 621.367 608.23 622.033C608.81 622.699 609.111 623.569 609.132 624.643C609.132 625.61 608.864 626.48 608.327 627.253C607.789 628.027 607.027 628.639 606.039 629.09C605.072 629.52 603.955 629.734 602.687 629.734ZM612.176 620.551C612.176 618.746 612.541 617.167 613.271 615.814C614.002 614.439 615.001 613.376 616.268 612.624C617.557 611.872 618.986 611.496 620.554 611.496C622.101 611.496 623.443 611.829 624.582 612.495C625.72 613.161 626.569 613.999 627.127 615.008V611.786H630.092V629.444H627.127V626.158C626.547 627.189 625.677 628.048 624.517 628.735C623.379 629.401 622.047 629.734 620.522 629.734C618.953 629.734 617.536 629.348 616.268 628.574C615.001 627.801 614.002 626.716 613.271 625.32C612.541 623.923 612.176 622.334 612.176 620.551ZM627.127 620.583C627.127 619.251 626.859 618.091 626.322 617.103C625.785 616.115 625.054 615.363 624.131 614.847C623.228 614.31 622.229 614.042 621.134 614.042C620.038 614.042 619.039 614.3 618.137 614.815C617.235 615.331 616.515 616.083 615.978 617.071C615.441 618.059 615.173 619.219 615.173 620.551C615.173 621.904 615.441 623.086 615.978 624.095C616.515 625.083 617.235 625.846 618.137 626.383C619.039 626.899 620.038 627.156 621.134 627.156C622.229 627.156 623.228 626.899 624.131 626.383C625.054 625.846 625.785 625.083 626.322 624.095C626.859 623.086 627.127 621.915 627.127 620.583ZM637.98 614.654C638.495 613.644 639.225 612.86 640.171 612.302C641.137 611.743 642.308 611.464 643.683 611.464V614.493H642.91C639.623 614.493 637.98 616.276 637.98 619.842V629.444H635.047V611.786H637.98V614.654ZM662.277 611.786L651.644 637.758H648.615L652.095 629.251L644.973 611.786H648.228L653.77 626.093L659.248 611.786H662.277Z" fill="white"/>
<rect x="884.575" y="-335.225" width="1082.67" height="590.97" rx="64.5572" transform="rotate(-11.6596 884.575 -335.225)" fill="#808AF2"/>
<mask id="mask0_218_2" style="mask-type:luminance" maskUnits="userSpaceOnUse" x="1044" y="46" width="213" height="115">
<path d="M1256.15 46.8473L1044.3 46.6367L1044.22 160.788L1256.06 160.999L1256.15 46.8473Z" fill="white"/>
</mask>
<g mask="url(#mask0_218_2)">
<path d="M1069.58 97.6958C1068.78 99.6699 1067.59 101.439 1066.1 102.889C1064.64 104.311 1062.95 105.448 1061.12 106.249C1059.3 107.049 1057.38 107.549 1055.42 107.73C1053.01 107.948 1050.95 107.78 1049.26 107.224C1047.77 106.732 1046.29 105.82 1044.83 104.489C1044.51 104.196 1044.49 103.679 1044.78 103.348L1050.35 96.9292C1050.65 96.5931 1051.14 96.5833 1051.48 96.8669C1051.92 97.2429 1052.41 97.5634 1052.93 97.8216C1053.73 98.1355 1054.59 98.2363 1055.43 98.1155C1057.08 97.9604 1058.38 97.3358 1059.35 96.2415C1060.31 95.1473 1060.79 93.5924 1060.79 91.5765L1060.81 63.7222C1060.81 63.2993 1061.11 62.947 1061.51 62.9106L1070.05 62.1212C1070.49 62.08 1070.88 62.456 1070.88 62.9344L1070.86 90.8911C1070.89 93.2301 1070.45 95.5493 1069.58 97.6958Z" fill="white"/>
<path d="M1107.73 93.5374C1106.94 95.5348 1105.8 97.3481 1104.36 98.8761C1102.91 100.412 1101.22 101.655 1099.35 102.544C1097.45 103.455 1095.42 104.013 1093.34 104.194C1091.33 104.404 1089.3 104.222 1087.36 103.655C1085.54 103.121 1083.84 102.186 1082.38 100.911C1080.94 99.641 1079.8 98.0253 1079.05 96.1948C1078.24 94.1986 1077.84 92.0402 1077.87 89.8647L1077.89 62.1295C1077.89 61.7068 1078.2 61.3545 1078.59 61.3179L1087.13 60.5257C1087.58 60.4843 1087.96 60.8604 1087.96 61.3389L1087.94 88.6857C1087.94 90.6993 1088.42 92.2266 1089.38 93.2674C1090.34 94.3116 1091.66 94.7501 1093.35 94.5961C1094.11 94.5533 1094.86 94.3484 1095.55 93.9932C1096.24 93.638 1096.86 93.1396 1097.37 92.5269C1098.36 91.3069 1098.86 89.6891 1098.87 87.6732L1098.89 60.1897C1098.89 59.767 1099.19 59.4147 1099.59 59.3781L1108.13 58.586C1108.58 58.5446 1108.96 58.9206 1108.96 59.3991L1108.94 86.991C1108.95 89.238 1108.54 91.4652 1107.73 93.5374Z" fill="white"/>
<path d="M1142.83 91.6699C1142.02 93.468 1140.86 95.0576 1139.43 96.3297C1137.91 97.6715 1136.2 98.7362 1134.36 99.4808C1132.38 100.29 1130.31 100.793 1128.2 100.975C1124.83 101.29 1121.88 101.142 1119.37 100.532C1117.08 99.9738 1114.97 98.8133 1113.21 97.1611C1112.9 96.8704 1112.89 96.3669 1113.17 96.0425L1118.61 89.7011C1118.89 89.374 1119.37 89.3502 1119.7 89.61C1120.7 90.3783 1121.85 90.8912 1123.07 91.1038C1124.78 91.4504 1126.53 91.537 1128.27 91.3606C1132.19 91.0003 1134.15 89.5042 1134.15 86.8723C1134.15 85.7628 1133.89 84.9246 1133.35 84.3579C1132.81 83.7909 1131.87 83.4886 1130.64 83.4378L1128.23 83.2929L1125.7 83.1579C1122.05 82.918 1119.31 81.8776 1117.47 80.0366C1115.59 78.1139 1114.65 75.2626 1114.66 71.4826C1114.63 69.548 1114.97 67.6282 1115.67 65.8446C1116.37 64.0609 1117.41 62.4523 1118.72 61.1205C1121.43 58.2816 1125.07 56.6502 1129.63 56.2264C1132.62 55.9512 1135.24 56.1194 1137.48 56.731C1139.46 57.2663 1141.3 58.2643 1142.86 59.6493C1143.19 59.9358 1143.21 60.452 1142.92 60.7827L1137.84 66.6863C1137.43 67.1583 1136.74 67.171 1136.25 66.8117C1135.48 66.261 1134.61 65.8918 1133.7 65.7356C1132.25 65.5385 1130.79 65.5192 1129.34 65.6783C1127.73 65.829 1126.5 66.3544 1125.65 67.2543C1125.27 67.6281 1124.95 68.0828 1124.74 68.5906C1124.52 69.0984 1124.4 69.6486 1124.39 70.2073C1124.38 70.5765 1124.45 70.9429 1124.59 71.2811C1124.73 71.6193 1124.93 71.921 1125.19 72.1653C1125.84 72.8041 1126.78 73.1483 1128.01 73.1981L1130.25 73.2964L1132.96 73.478C1136.56 73.6802 1139.25 74.6433 1141.01 76.3673C1143.04 78.3167 1144.06 81.4276 1144.05 85.6998C1144.07 87.7633 1143.65 89.8042 1142.83 91.6699Z" fill="white"/>
<path d="M1169.09 62.5428C1168.7 62.5794 1168.4 62.9317 1168.4 63.3544L1168.37 96.1318C1168.37 96.5545 1168.07 96.9068 1167.67 96.9434L1159.13 97.7355C1158.68 97.777 1158.3 97.4008 1158.3 96.9223L1158.33 64.4315C1158.33 63.953 1157.94 63.5769 1157.5 63.6184L1149.09 64.3982C1148.64 64.4395 1148.26 64.0636 1148.26 63.5851L1148.26 55.6045C1148.26 55.1818 1148.57 54.8295 1148.96 54.7929L1177.64 52.133C1178.09 52.0915 1178.47 52.4676 1178.47 52.9461L1178.47 60.9266C1178.47 61.3493 1178.16 61.7017 1177.77 61.7382L1169.09 62.5428Z" fill="white"/>
<path d="M1075.87 154.876C1073.49 157.373 1070.42 158.798 1066.66 159.152L1049.65 160.714C1049.2 160.755 1048.82 160.379 1048.82 159.901L1048.85 117.665C1048.85 117.242 1049.15 116.89 1049.55 116.853L1065.83 115.342C1070.02 114.955 1073.24 115.804 1075.51 117.888C1077.77 119.973 1078.9 122.955 1078.9 126.834C1078.9 129.013 1078.42 130.855 1077.46 132.36C1076.62 133.719 1075.59 134.928 1074.4 135.94C1074.99 136.277 1075.55 136.645 1076.1 137.045C1076.69 137.501 1077.21 138.045 1077.65 138.659C1078.21 139.449 1078.65 140.336 1078.94 141.284C1079.31 142.49 1079.48 143.754 1079.46 145.023C1079.44 149.092 1078.25 152.377 1075.87 154.876ZM1067.95 125.869C1067.37 125.226 1066.45 124.962 1065.19 125.078L1059.61 125.597C1059.22 125.633 1058.91 125.986 1058.91 126.408L1058.91 131.921C1058.91 132.4 1059.29 132.776 1059.74 132.735L1065.18 132.229C1066.45 132.111 1067.37 131.677 1067.94 130.926C1068.51 130.195 1068.82 129.27 1068.81 128.317C1068.82 127.869 1068.75 127.421 1068.61 127.001C1068.46 126.581 1068.24 126.196 1067.95 125.869ZM1068.48 142.72C1067.89 142.033 1066.96 141.75 1065.7 141.87L1059.6 142.434C1059.2 142.471 1058.9 142.823 1058.9 143.246L1058.89 149.312C1058.89 149.791 1059.28 150.167 1059.72 150.126L1065.69 149.573C1066.96 149.455 1067.89 148.989 1068.48 148.175C1069.07 147.371 1069.39 146.372 1069.37 145.348C1069.41 144.381 1069.09 143.438 1068.48 142.72Z" fill="white"/>
<path d="M1087.22 157.242C1086.77 157.283 1086.39 156.907 1086.39 156.429L1086.42 114.177C1086.42 113.754 1086.73 113.402 1087.12 113.365L1113.45 110.925C1113.89 110.883 1114.28 111.259 1114.28 111.738L1114.27 119.715C1114.27 120.138 1113.97 120.49 1113.57 120.527L1097.19 122.049C1096.79 122.085 1096.49 122.438 1096.49 122.86L1096.48 128.556C1096.48 129.034 1096.87 129.41 1097.31 129.369L1110.84 128.114C1111.29 128.073 1111.67 128.449 1111.67 128.927L1111.67 136.908C1111.67 137.33 1111.36 137.683 1110.97 137.719L1097.17 138.999C1096.78 139.036 1096.48 139.388 1096.48 139.811L1096.47 145.877C1096.47 146.355 1096.85 146.732 1097.3 146.69L1113.42 145.196C1113.87 145.155 1114.25 145.531 1114.25 146.009L1114.24 153.99C1114.24 154.412 1113.94 154.765 1113.55 154.801L1087.22 157.242Z" fill="white"/>
<path d="M1139.82 118.092C1139.43 118.128 1139.12 118.481 1139.12 118.903L1139.1 151.681C1139.1 152.103 1138.8 152.456 1138.4 152.492L1129.86 153.284C1129.41 153.326 1129.03 152.95 1129.03 152.471L1129.05 119.98C1129.05 119.502 1128.67 119.126 1128.22 119.167L1119.81 119.947C1119.37 119.988 1118.98 119.612 1118.98 119.134L1118.99 111.153C1118.99 110.731 1119.29 110.378 1119.69 110.342L1148.37 107.682C1148.82 107.64 1149.2 108.016 1149.2 108.495L1149.2 116.475C1149.2 116.898 1148.89 117.25 1148.5 117.287L1139.82 118.092Z" fill="white"/>
<path d="M1173.48 114.968C1173.09 115.005 1172.78 115.357 1172.78 115.78L1172.76 148.56C1172.76 148.983 1172.45 149.335 1172.06 149.372L1163.52 150.164C1163.07 150.206 1162.69 149.83 1162.69 149.351L1162.71 116.857C1162.71 116.378 1162.33 116.002 1161.88 116.044L1153.47 116.823C1153.03 116.865 1152.64 116.489 1152.64 116.01L1152.65 108.033C1152.65 107.611 1152.95 107.258 1153.35 107.222L1182.03 104.562C1182.48 104.52 1182.86 104.896 1182.86 105.375L1182.85 113.352C1182.85 113.775 1182.55 114.127 1182.16 114.164L1173.48 114.968Z" fill="white"/>
<path d="M1189.53 147.747C1189.08 147.789 1188.7 147.413 1188.7 146.934L1188.73 104.685C1188.73 104.263 1189.03 103.91 1189.43 103.874L1215.75 101.433C1216.2 101.392 1216.58 101.768 1216.58 102.247L1216.57 110.224C1216.57 110.646 1216.27 110.999 1215.87 111.035L1199.49 112.554C1199.09 112.591 1198.79 112.943 1198.79 113.366L1198.79 119.065C1198.79 119.543 1199.17 119.919 1199.62 119.878L1213.14 118.623C1213.59 118.581 1213.98 118.958 1213.97 119.436L1213.97 127.413C1213.97 127.836 1213.67 128.188 1213.27 128.225L1199.47 129.508C1199.08 129.544 1198.78 129.897 1198.78 130.319L1198.77 136.386C1198.77 136.864 1199.16 137.24 1199.6 137.199L1215.72 135.705C1216.17 135.663 1216.55 136.039 1216.55 136.518L1216.55 144.495C1216.55 144.918 1216.24 145.27 1215.85 145.307L1189.53 147.747Z" fill="white"/>
<path d="M1244.91 142.609C1244.6 142.639 1244.3 142.459 1244.16 142.157L1237.39 127.484C1237.25 127.182 1236.95 127.002 1236.63 127.032L1234.45 127.243C1234.06 127.281 1233.75 127.633 1233.75 128.054L1233.74 142.897C1233.74 143.32 1233.44 143.672 1233.05 143.709L1224.5 144.501C1224.06 144.542 1223.67 144.166 1223.67 143.688L1223.71 101.439C1223.71 101.017 1224.01 100.664 1224.4 100.628L1239.93 99.1883C1241.92 98.9666 1243.93 99.1667 1245.85 99.7771C1247.51 100.307 1249.02 101.243 1250.28 102.511C1251.46 103.722 1252.38 105.192 1252.98 106.819C1253.6 108.468 1253.91 110.227 1253.9 112.003C1253.95 114.569 1253.28 117.091 1251.97 119.24C1250.9 121.011 1249.49 122.519 1247.85 123.672C1247.51 123.913 1247.38 124.394 1247.57 124.781L1255.52 140.481C1255.78 140.997 1255.46 141.63 1254.92 141.681L1244.91 142.609ZM1242.66 109.938C1241.88 109.125 1240.81 108.781 1239.47 108.908L1234.49 109.362C1234.09 109.398 1233.79 109.751 1233.79 110.174L1233.78 117.412C1233.78 117.89 1234.17 118.266 1234.61 118.225L1239.48 117.774C1240.08 117.743 1240.68 117.584 1241.22 117.305C1241.77 117.027 1242.26 116.634 1242.67 116.151C1243.43 115.275 1243.85 114.125 1243.85 112.93C1243.86 112.37 1243.76 111.814 1243.56 111.298C1243.35 110.783 1243.05 110.32 1242.66 109.938Z" fill="white"/>
<path d="M1209.13 154.134L1255.37 149.845C1255.76 149.809 1256.07 149.457 1256.07 149.034L1256.07 147.36C1256.07 146.882 1255.68 146.506 1255.24 146.547L1209.13 150.823" fill="white"/>
<path d="M1179.14 156.864L1201.94 154.75C1202.33 154.713 1202.64 154.361 1202.64 153.939L1202.64 152.264C1202.64 151.786 1202.26 151.41 1201.81 151.451L1179.14 153.553" fill="white"/>
<path d="M1060.82 57.1194L1107.06 52.8307C1107.46 52.7941 1107.76 52.4419 1107.76 52.0194L1107.76 50.3452C1107.76 49.8669 1107.38 49.491 1106.93 49.5324L1060.83 53.8087" fill="white"/>
<path d="M1114.25 52.2166L1137.05 50.1027C1137.44 50.0662 1137.74 49.7139 1137.74 49.2913L1137.75 47.617C1137.75 47.1386 1137.36 46.7626 1136.92 46.804L1114.25 48.9055" fill="white"/>
</g>
<rect x="1109" y="691.069" width="346.746" height="388.163" rx="80.6917" transform="rotate(-12.8421 1109 691.069)" fill="#808AF2"/>
</g>
<defs>
<clipPath id="clip0_218_2">
<rect width="1330" height="888" rx="24" fill="white"/>
</clipPath>
</defs>
</svg>
